<svg width="179" height="61" viewBox="0 0 179 61" fill="none" xmlns="http://www.w3.org/2000/svg">
<g clip-path="url(#clip0_9204_67909)">
<path d="M39.5904 57.8101V57.7934C40.097 57.5596 40.4319 57.1296 40.4319 56.4574C40.4319 55.6433 39.9002 55.0046 38.4936 55.0046C37.9033 55.0046 37.1205 55.0296 36.7939 55.0463V60.8996C37.1372 60.9246 37.8991 60.9413 38.435 60.9413C39.6825 60.9413 40.6245 60.3861 40.6245 59.1795C40.6245 58.3988 40.1681 57.9521 39.5904 57.8101ZM37.8322 55.994C38.0164 55.9773 38.2466 55.969 38.481 55.969C39.0378 55.969 39.4062 56.2195 39.4062 56.6996C39.4062 57.2382 39.0085 57.4803 38.5313 57.4803H37.8322V55.994ZM38.5145 59.9769C38.2215 59.9769 37.9745 59.9519 37.8322 59.9352V58.3821H38.5648C39.2137 58.3821 39.5904 58.6326 39.5904 59.1294C39.5904 59.6847 39.2095 59.9769 38.5145 59.9769ZM43.6093 60.9079H44.6434V55.0296H43.6093V60.9079ZM48.679 56.5493C48.679 56.161 48.9888 55.9022 49.5037 55.9022C49.9768 55.9022 50.2614 56.0608 50.5461 56.3405L51.1029 55.5682C50.7471 55.1799 50.1442 54.9378 49.42 54.9378C48.2729 54.9378 47.5822 55.6767 47.5822 56.5576C47.5822 58.4739 50.2531 58.1859 50.2531 59.3465C50.2531 59.7932 49.8847 60.0354 49.3949 60.0354C48.9385 60.0354 48.386 59.8183 48.0385 59.3716L47.4482 60.0771C47.7329 60.6741 48.6204 60.9998 49.3781 60.9998C50.4833 60.9998 51.3499 60.3276 51.3499 59.3382C51.3499 57.3801 48.679 57.7684 48.679 56.5493ZM53.4891 55.994H55.4023V60.9079H56.4363V55.994H58.3495V55.0296H53.4891V55.994ZM64.7671 56.8248C64.7671 55.8103 64.2355 55.0087 62.6279 55.0087C62.4605 55.0087 61.1627 55.0254 60.8362 55.0254V60.9038H61.8702V58.7036H62.5944L64.2187 60.9038H65.4746L63.6285 58.5032C64.1183 58.3362 64.7671 57.831 64.7671 56.8248ZM62.5442 57.7392H61.8702V55.994C62.1465 55.9857 62.3851 55.9773 62.5777 55.9773C63.4191 55.9773 63.6745 56.3739 63.6745 56.8332C63.6745 57.4386 63.1428 57.7392 62.5442 57.7392ZM70.4606 54.9336C68.6521 54.9336 67.3962 56.2612 67.3962 57.9646C67.3962 59.7974 68.7107 60.9956 70.4606 60.9956C72.2105 60.9956 73.5334 59.7264 73.5334 57.9646C73.5334 56.2028 72.2105 54.9336 70.4606 54.9336ZM70.4606 60.0312C69.3554 60.0312 68.4888 59.1419 68.4888 57.9646C68.4888 56.7873 69.3303 55.898 70.4606 55.898C71.5909 55.898 72.4407 56.7455 72.4407 57.9646C72.4407 59.1837 71.6997 60.0312 70.4606 60.0312ZM81.3786 56.4533C81.3786 56.1527 81.6047 55.898 81.9689 55.898C82.3331 55.898 82.5089 56.1569 82.6177 56.4032L83.3169 55.9398C83.141 55.3511 82.6512 54.9336 81.8516 54.9336C81.1358 54.9336 80.3446 55.4388 80.3446 56.303C80.3446 56.8666 80.6711 57.2757 81.0688 57.4469V57.472C80.5288 57.5972 79.7794 58.1441 79.7794 59.1837C79.7794 60.2232 80.5455 60.9998 81.927 60.9998C82.6261 60.9998 83.409 60.7409 83.7146 60.4863V58.094H84.3132V57.1296H82.4252C81.793 57.1296 81.3828 56.8708 81.3828 56.4574L81.3786 56.4533ZM82.7433 59.8391C82.5256 59.9393 82.287 60.0312 81.9689 60.0312C81.32 60.0312 80.8051 59.6888 80.8051 59.0417C80.8051 58.5449 81.1944 58.094 81.9772 58.094H82.7433V59.8391ZM96.0894 59.2254L94.7414 55.0254H93.7158L92.4012 59.2171L91.2123 55.0254H90.0485L91.8068 60.9038H92.7822L94.1805 56.6537L95.6038 60.9038H96.5709L98.2538 55.0254H97.2616L96.0811 59.2254H96.0894ZM100.795 60.9038H101.829V55.0254H100.795V60.9038ZM109.13 59.1169L105.89 55.0254H105.065V60.9038H106.032V56.829L109.272 60.9038H110.097V55.0254H109.13V59.1169ZM114.317 58.4197H116.439V57.4553H114.317V55.994H116.69V55.0296H113.279V60.9079H116.774V59.9435H114.317V58.4238V58.4197ZM126.072 57.806V57.7892C126.579 57.5555 126.914 57.1254 126.914 56.4533C126.914 55.6392 126.382 55.0004 124.975 55.0004C124.385 55.0004 123.602 55.0254 123.276 55.0421V60.8954C123.619 60.9205 124.381 60.9372 124.917 60.9372C126.164 60.9372 127.106 60.3819 127.106 59.1753C127.106 58.3946 126.65 57.9479 126.072 57.806ZM124.314 55.9899C124.498 55.9732 124.728 55.9648 124.963 55.9648C125.519 55.9648 125.888 56.2153 125.888 56.6954C125.888 57.234 125.49 57.4761 125.013 57.4761H124.314V55.9899ZM124.996 59.9727C124.703 59.9727 124.456 59.9477 124.314 59.931V58.3779H125.046C125.695 58.3779 126.072 58.6284 126.072 59.1252C126.072 59.6805 125.691 59.9727 124.996 59.9727ZM131.69 55.0087L129.199 60.9038H130.242L130.857 59.4008H133.373L133.988 60.9038H135.094L132.603 55.0087H131.694H131.69ZM131.251 58.4364L132.117 56.3447L132.975 58.4364H131.251ZM140.368 58.5032C140.858 58.3362 141.507 57.831 141.507 56.8248C141.507 55.8187 140.975 55.0087 139.368 55.0087C139.2 55.0087 137.903 55.0254 137.576 55.0254V60.9038H138.61V58.7036H139.334L140.959 60.9038H142.215L140.368 58.5032ZM139.28 57.7392H138.606V55.994C138.882 55.9857 139.121 55.9773 139.313 55.9773C140.155 55.9773 140.41 56.3739 140.41 56.8332C140.41 57.4386 139.879 57.7392 139.28 57.7392Z" fill="#BAB899"/>
<path d="M179 6.28328V0.308945H163.368V42.8098H179V36.8355H169.593V31.6794H177.811V25.7051H169.593V6.28328H179ZM175.442 28.1432V28.9699H166.91V39.5158H176.631V40.3424H166.081V2.88906H176.631V3.71569H166.91V28.1391H175.442V28.1432ZM142.554 0.308945H136.329V42.8098H151.558V36.8355H142.554V0.308945ZM149.185 39.5158V40.3424H139.058V2.90993H139.887V39.5116H149.185V39.5158ZM111.939 18.5701C110.687 19.092 109.465 19.3007 108.657 19.3842V39.5033C110.042 39.4615 114.689 39.1025 117.716 36.1716C119.571 34.3764 120.508 31.9132 120.508 28.8572C120.508 22.1439 114.463 18.8206 111.939 18.5701ZM110.989 36.7645V21.1377C114.597 21.8892 118.11 24.6572 118.11 28.924C118.11 34.1426 114.693 36.2593 110.989 36.7687V36.7645ZM115.958 11.0302C115.958 5.33557 111.403 3.61967 108.661 3.4652V18.5618C111.16 18.2946 115.958 17.0003 115.958 11.0344V11.0302ZM110.989 15.1216V6.8302C110.989 6.8302 113.634 7.73198 113.634 10.9383C113.634 14.7835 110.989 15.1216 110.989 15.1216ZM117.189 17.3093C118.444 15.6978 119.127 13.6103 119.127 11.3099C119.127 6.29163 116.427 0.217097 106.371 0.217097H105.123V42.8181H106.961C118.21 42.8181 123.979 37.6245 123.979 28.924C123.979 24.1854 121.404 19.8309 117.189 17.3093ZM118.294 36.7728C114.794 40.1629 109.49 40.3382 108.418 40.3382C108.318 40.3382 108.255 40.3382 108.234 40.3382L107.832 40.3257V2.61351H108.246C108.954 2.61351 111.428 2.73876 113.643 4.35863C115.079 5.40654 116.791 7.41469 116.791 11.0218C116.791 14.629 115.074 16.8083 113.136 17.9689C116.272 18.8791 121.341 22.3568 121.341 28.853C121.341 32.147 120.316 34.8106 118.294 36.7687V36.7728ZM18.7758 0C16.7956 0 14.9746 0.709739 13.547 1.89125C12.1153 0.709739 10.2984 0 8.31828 0C3.73004 0 0 3.79919 0 8.47095V42.8098H6.2251V8.0618C6.2251 7.07652 7.12098 5.97433 8.31828 5.97433C9.51558 5.97433 10.4115 7.07652 10.4115 8.0618V42.8098H16.6826V8.0618C16.6826 7.07652 17.5785 5.97433 18.7758 5.97433C19.9731 5.97433 20.869 7.07652 20.869 8.0618V42.8098H27.0941V8.47095C27.0941 3.79919 23.364 0 18.7758 0ZM24.419 40.2046H23.5901V8.2455C23.5901 5.51092 21.4299 3.28568 18.7758 3.28568C17.5827 3.28568 16.49 3.73657 15.6486 4.47971C14.6187 5.38984 13.9615 6.73835 13.9615 8.2455V40.2088H13.1284V8.2455C13.1284 6.73835 12.4711 5.39402 11.4413 4.47971C10.5998 3.73657 9.5072 3.28568 8.31409 3.28568C5.65995 3.28568 3.49979 5.51092 3.49979 8.2455V40.2088H2.67089V8.2455C2.67089 5.05585 5.20364 2.45904 8.31409 2.45904C9.6621 2.45904 10.8971 2.94751 11.8683 3.75744C12.6009 4.37116 13.1828 5.16857 13.5428 6.08288C13.9029 5.16857 14.4848 4.37116 15.2174 3.75744C16.1886 2.94751 17.4236 2.45904 18.7716 2.45904C21.8821 2.45904 24.4148 5.05585 24.4148 8.2455V40.2088L24.419 40.2046ZM49.311 0C44.727 0 40.9928 3.79919 40.9928 8.47095V42.8098H47.2179V30.8653H51.4042V42.8098H57.6293V8.47095C57.6293 3.79919 53.8993 0 49.311 0ZM54.9542 40.2046H54.1253V28.1516H44.5009V40.2046H43.672V8.2455C43.672 5.05585 46.2048 2.45904 49.3152 2.45904C52.4257 2.45904 54.9584 5.05585 54.9584 8.2455V40.2088L54.9542 40.2046ZM49.311 3.28568C46.6569 3.28568 44.4967 5.51092 44.4967 8.2455V27.325H54.1212V8.2455C54.1212 5.51092 51.961 3.28568 49.3068 3.28568H49.311ZM51.4042 24.891H47.2179V8.0618C47.2179 7.07652 48.1137 5.97433 49.311 5.97433C50.5083 5.97433 51.4042 7.07652 51.4042 8.0618V24.891ZM79.6663 3.96201C78.2136 3.59462 76.8614 3.44015 76.1916 3.3817V27.947C76.7693 27.8343 77.8913 27.5588 79.637 26.8866C85.7741 24.5278 88.6334 20.8747 88.6334 15.3805C88.6334 9.88625 85.1964 5.36897 79.6621 3.96201H79.6663ZM78.9127 24.3524V6.52125C83.1033 7.67771 85.8453 11.1262 85.8453 15.3805C85.8453 19.6347 83.0446 23.1834 78.9127 24.3524ZM92.0704 15.3805C92.0704 6.16638 85.3513 0.208747 74.291 0.208747H72.6876V42.8098H78.9127C78.9127 42.8098 79.0634 35.821 79.0634 30.4186C79.3607 30.3476 79.7249 30.2516 80.1351 30.1263L85.0457 42.8098H91.9825L85.5397 27.613C88.8721 25.3961 92.0704 21.6387 92.0704 15.3805ZM81.9688 26.7697L88.0892 40.4426H87.2603L81.3241 27.0745C80.8803 27.2749 80.4198 27.4711 79.9384 27.659C77.9834 28.4104 76.7735 28.686 76.1916 28.7904V40.4426H75.3627V2.50079L75.7981 2.52166C75.8776 2.52166 77.7489 2.61769 79.8756 3.16043C85.7951 4.66758 89.4707 9.34768 89.4707 15.3805C89.4707 20.6075 87.0719 24.2689 81.9729 26.7697H81.9688Z" fill="#BAB899"/>
</g>
<defs>
<clipPath id="clip0_9204_67909">
<rect width="179" height="61" fill="white"/>
</clipPath>
</defs>
</svg>
