<svg width="362" height="122" viewBox="0 0 362 122" fill="none" xmlns="http://www.w3.org/2000/svg">
<g clip-path="url(#clip0_9204_67913)">
<path d="M80.0654 115.621V115.587C81.0898 115.12 81.7671 114.26 81.7671 112.915C81.7671 111.287 80.6919 110.01 77.8472 110.01C76.6535 110.01 75.0703 110.06 74.4099 110.093V121.8C75.1041 121.85 76.645 121.883 77.7287 121.883C80.2516 121.883 82.1565 120.773 82.1565 118.359C82.1565 116.798 81.2337 115.905 80.0654 115.621ZM76.5095 111.989C76.8821 111.955 77.3477 111.938 77.8218 111.938C78.9478 111.938 79.6929 112.439 79.6929 113.4C79.6929 114.477 78.8886 114.961 77.9234 114.961H76.5095V111.989ZM77.8895 119.954C77.2969 119.954 76.7974 119.904 76.5095 119.871V116.765H77.9911C79.3034 116.765 80.0654 117.266 80.0654 118.259C80.0654 119.37 79.2949 119.954 77.8895 119.954ZM88.193 121.816H90.2841V110.06H88.193V121.816ZM98.4456 113.099C98.4456 112.323 99.0721 111.805 100.113 111.805C101.07 111.805 101.646 112.122 102.222 112.682L103.348 111.137C102.628 110.36 101.409 109.876 99.9441 109.876C97.6244 109.876 96.2274 111.354 96.2274 113.116C96.2274 116.948 101.629 116.372 101.629 118.693C101.629 119.587 100.884 120.071 99.8933 120.071C98.9705 120.071 97.853 119.637 97.1503 118.744L95.9565 120.155C96.5322 121.349 98.3271 122 99.8595 122C102.095 122 103.847 120.656 103.847 118.677C103.847 114.761 98.4456 115.537 98.4456 113.099ZM108.173 111.989H112.042V121.816H114.134V111.989H118.003V110.06H108.173V111.989ZM130.981 113.65C130.981 111.621 129.906 110.018 126.655 110.018C126.317 110.018 123.692 110.051 123.032 110.051V121.808H125.123V117.408H126.587L129.872 121.808H132.412L128.679 117.007C129.669 116.673 130.981 115.662 130.981 113.65ZM126.486 115.479H125.123V111.989C125.682 111.972 126.164 111.955 126.554 111.955C128.255 111.955 128.772 112.748 128.772 113.667C128.772 114.878 127.696 115.479 126.486 115.479ZM142.496 109.868C138.838 109.868 136.298 112.523 136.298 115.93C136.298 119.595 138.957 121.992 142.496 121.992C146.034 121.992 148.71 119.453 148.71 115.93C148.71 112.406 146.034 109.868 142.496 109.868ZM142.496 120.063C140.26 120.063 138.508 118.284 138.508 115.93C138.508 113.575 140.21 111.796 142.496 111.796C144.781 111.796 146.5 113.491 146.5 115.93C146.5 118.368 145.002 120.063 142.496 120.063ZM164.576 112.907C164.576 112.306 165.033 111.796 165.769 111.796C166.506 111.796 166.861 112.314 167.082 112.807L168.495 111.88C168.14 110.703 167.149 109.868 165.532 109.868C164.084 109.868 162.484 110.878 162.484 112.606C162.484 113.734 163.145 114.552 163.949 114.894V114.944C162.857 115.195 161.341 116.289 161.341 118.368C161.341 120.447 162.891 122 165.685 122C167.098 122 168.682 121.482 169.3 120.973V116.188H170.51V114.26H166.692C165.414 114.26 164.584 113.742 164.584 112.915L164.576 112.907ZM167.335 119.679C166.895 119.879 166.413 120.063 165.769 120.063C164.457 120.063 163.416 119.378 163.416 118.084C163.416 117.09 164.203 116.188 165.786 116.188H167.335V119.679ZM194.326 118.451L191.6 110.051H189.526L186.867 118.435L184.463 110.051H182.109L185.665 121.808H187.638L190.465 113.308L193.344 121.808H195.3L198.703 110.051H196.696L194.309 118.451H194.326ZM203.842 121.808H205.933V110.051H203.842V121.808ZM220.698 118.234L214.145 110.051H212.478V121.808H214.433V113.658L220.986 121.808H222.654V110.051H220.698V118.234ZM231.188 116.84H235.48V114.911H231.188V111.989H235.988V110.06H229.088V121.816H236.158V119.887H231.188V116.848V116.84ZM254.961 115.612V115.579C255.986 115.111 256.663 114.251 256.663 112.907C256.663 111.279 255.588 110.001 252.743 110.001C251.549 110.001 249.966 110.051 249.306 110.085V121.791C250 121.841 251.541 121.875 252.625 121.875C255.147 121.875 257.052 120.764 257.052 118.351C257.052 116.79 256.13 115.896 254.961 115.612ZM251.405 111.98C251.778 111.947 252.244 111.93 252.718 111.93C253.844 111.93 254.589 112.431 254.589 113.391C254.589 114.468 253.784 114.953 252.819 114.953H251.405V111.98ZM252.785 119.946C252.193 119.946 251.693 119.896 251.405 119.862V116.756H252.887C254.199 116.756 254.961 117.257 254.961 118.251C254.961 119.361 254.191 119.946 252.785 119.946ZM266.323 110.018L261.285 121.808H263.394L264.638 118.802H269.726L270.971 121.808H273.206L268.169 110.018H266.331H266.323ZM265.434 116.873L267.186 112.69L268.922 116.873H265.434ZM283.873 117.007C284.864 116.673 286.176 115.662 286.176 113.65C286.176 111.638 285.101 110.018 281.85 110.018C281.511 110.018 278.887 110.051 278.226 110.051V121.808H280.318V117.408H281.782L285.067 121.808H287.607L283.873 117.007ZM281.672 115.479H280.309V111.989C280.868 111.972 281.351 111.955 281.74 111.955C283.442 111.955 283.958 112.748 283.958 113.667C283.958 114.878 282.883 115.479 281.672 115.479Z" fill="white"/>
<path d="M362 12.5666V0.617891H330.387V85.6196H362V73.6709H342.976V63.3588H359.596V51.4102H342.976V12.5666H362ZM354.804 56.2865V57.9398H337.549V79.0316H357.208V80.6848H335.873V5.77811H357.208V7.43139H337.549V56.2781H354.804V56.2865ZM288.293 0.617891H275.703V85.6196H306.504V73.6709H288.293V0.617891ZM301.703 79.0316V80.6848H281.224V5.81986H282.9V79.0232H301.703V79.0316ZM226.379 37.1402C223.848 38.184 221.376 38.6015 219.742 38.7685V79.0065C222.544 78.923 231.941 78.2049 238.063 72.3433C241.813 68.7529 243.71 63.8264 243.71 57.7143C243.71 44.2877 231.484 37.6412 226.379 37.1402ZM224.457 73.529V42.2754C231.755 43.7784 238.858 49.3144 238.858 57.8479C238.858 68.2853 231.95 72.5187 224.457 73.5373V73.529ZM234.507 22.0604C234.507 10.6711 225.295 7.23934 219.75 6.9304V37.1235C224.804 36.5891 234.507 34.0007 234.507 22.0687V22.0604ZM224.457 30.2432V13.6604C224.457 13.6604 229.808 15.464 229.808 21.8767C229.808 29.5669 224.457 30.2432 224.457 30.2432ZM236.996 34.6186C239.536 31.3955 240.916 27.2206 240.916 22.6198C240.916 12.5833 235.455 0.434193 215.119 0.434193H212.596V85.6363H216.313C239.062 85.6363 250.728 75.2491 250.728 57.8479C250.728 48.3708 245.521 39.6619 236.996 34.6186ZM239.231 73.5457C232.153 80.3258 221.426 80.6765 219.259 80.6765C219.056 80.6765 218.929 80.6765 218.886 80.6765L218.074 80.6514V5.22702H218.912C220.343 5.22702 225.346 5.47752 229.825 8.71727C232.729 10.8131 236.192 14.8294 236.192 22.0437C236.192 29.258 232.72 33.6166 228.8 35.9379C235.142 37.7581 245.394 44.7136 245.394 57.706C245.394 64.294 243.32 69.6212 239.231 73.5373V73.5457ZM37.9711 0C33.9666 0 30.2838 1.41948 27.3968 3.78249C24.5013 1.41948 20.827 0 16.8224 0C7.54343 0 0 7.59839 0 16.9419V85.6196H12.5893V16.1236C12.5893 14.153 14.4011 11.9487 16.8224 11.9487C19.2438 11.9487 21.0556 14.153 21.0556 16.1236V85.6196H33.738V16.1236C33.738 14.153 35.5498 11.9487 37.9711 11.9487C40.3925 11.9487 42.2043 14.153 42.2043 16.1236V85.6196H54.7936V16.9419C54.7936 7.59839 47.2502 0 37.9711 0ZM49.3837 80.4093H47.7073V16.491C47.7073 11.0218 43.3387 6.57135 37.9711 6.57135C35.5583 6.57135 33.3486 7.47314 31.6469 8.95941C29.5642 10.7797 28.2349 13.4767 28.2349 16.491V80.4176H26.5502V16.491C26.5502 13.4767 25.221 10.788 23.1383 8.95941C21.4366 7.47314 19.2269 6.57135 16.814 6.57135C11.4464 6.57135 7.07779 11.0218 7.07779 16.491V80.4176H5.40147V16.491C5.40147 10.1117 10.5236 4.91808 16.814 4.91808C19.5401 4.91808 22.0377 5.89501 24.0018 7.51489C25.4834 8.74232 26.6602 10.3371 27.3883 12.1658C28.1164 10.3371 29.2932 8.74232 30.7748 7.51489C32.739 5.89501 35.2365 4.91808 37.9627 4.91808C44.2531 4.91808 49.3752 10.1117 49.3752 16.491V80.4176L49.3837 80.4093ZM99.724 0C90.4534 0 82.9015 7.59839 82.9015 16.9419V85.6196H95.4909V61.7306H103.957V85.6196H116.546V16.9419C116.546 7.59839 109.003 0 99.724 0ZM111.136 80.4093H109.46V56.3032H89.9963V80.4093H88.3199V16.491C88.3199 10.1117 93.442 4.91808 99.7325 4.91808C106.023 4.91808 111.145 10.1117 111.145 16.491V80.4176L111.136 80.4093ZM99.724 6.57135C94.3564 6.57135 89.9878 11.0218 89.9878 16.491V54.6499H109.452V16.491C109.452 11.0218 105.083 6.57135 99.7155 6.57135H99.724ZM103.957 49.7819H95.4909V16.1236C95.4909 14.153 97.3026 11.9487 99.724 11.9487C102.145 11.9487 103.957 14.153 103.957 16.1236V49.7819ZM161.113 7.92403C158.175 7.18924 155.44 6.8803 154.086 6.7634V55.8941C155.254 55.6686 157.523 55.1175 161.054 53.7732C173.465 49.0555 179.247 41.7494 179.247 30.7609C179.247 19.7725 172.297 10.7379 161.104 7.92403H161.113ZM159.589 48.7048V13.0425C168.064 15.3554 173.609 22.2524 173.609 30.7609C173.609 39.2695 167.945 46.3668 159.589 48.7048ZM186.198 30.7609C186.198 12.3328 172.61 0.417494 150.242 0.417494H147V85.6196H159.589C159.589 85.6196 159.894 71.6419 159.894 60.8372C160.495 60.6952 161.231 60.5032 162.061 60.2527L171.992 85.6196H186.02L172.991 55.2261C179.73 50.7923 186.198 43.2774 186.198 30.7609ZM165.769 53.5394L178.147 80.8852H176.471L164.465 54.1489C163.568 54.5497 162.637 54.9422 161.663 55.3179C157.709 56.8209 155.263 57.372 154.086 57.5807V80.8852H152.409V5.00157L153.29 5.04332C153.451 5.04332 157.235 5.23537 161.536 6.32085C173.507 9.33516 180.941 18.6954 180.941 30.7609C180.941 41.215 176.09 48.5378 165.778 53.5394H165.769Z" fill="white"/>
</g>
<defs>
<clipPath id="clip0_9204_67913">
<rect width="362" height="122" fill="white"/>
</clipPath>
</defs>
</svg>
