<svg width="758" height="1407" viewBox="0 0 758 1407" fill="none" xmlns="http://www.w3.org/2000/svg">
<g clip-path="url(#clip0_9213_64994)">
<path d="M123.31 260.504V111.401L86.0272 148.682L107.033 169.688L107.389 170.21L120.696 263.142L123.31 260.528V260.504ZM726.751 652L686.498 584.969L680.201 578.482L673.714 584.969L633.46 652H630.134L618.229 640.286L606.514 652H603.187H603.354L562.934 584.969L556.637 578.482L550.34 584.969L509.921 652H506.76L494.856 640.286L482.951 652H479.79L439.537 584.969L433.05 578.482L426.753 584.969L386.5 652H383.173L371.268 640.286L359.364 652H356.203L315.95 584.969L309.653 578.482L303.166 584.969L262.913 652H259.753L247.848 640.286L235.943 652H232.782L192.529 584.969L186.042 578.482L179.745 584.969L139.492 652H136.165L124.261 640.286L112.356 652H109.195L68.9422 584.969L62.6452 578.482L56.1581 584.969L16.0238 652V647.628L54.5185 583.567L54.6848 583.4L61.1719 576.913L44.5384 560.47L38.2414 566.767L16.0238 633.276V626.266L36.1503 565.722L36.5068 565.199L50.1463 551.56L33.7028 534.927L20.2297 548.4L16.0238 577.626V561.516L17.9485 547.687L18.3049 547.164L39.3107 526.159L16.0238 502.872V499.712L22.8435 506.365L39.2869 489.732L16 466.446V463.286C24.9346 472.03 33.6791 480.964 42.4235 489.708L24.3881 507.91L42.4235 526.111L35.2474 533.287L53.4492 551.489L46.1067 558.831L62.7402 575.274L79.1837 558.831L72.0075 551.489L90.2093 533.287L82.8668 526.111L101.069 507.91L82.8668 489.708L109.29 463.286L69.0372 396.088L62.7402 389.791L56.2531 396.088L16.0238 463.333V458.961L54.5185 394.9L54.6848 394.734L61.1719 388.247L44.5384 371.614L38.2414 377.91L16.0238 444.609V437.433L36.1503 376.889L36.5068 376.532L50.1463 362.703L33.7028 346.26L20.2297 359.733L16.0238 388.793V372.683L17.9485 359.044L18.3049 358.355L39.3107 337.349L16.0238 314.063V310.903L22.8435 317.556L39.2869 301.113L16 277.827V274.5V270.128L54.4947 206.067L54.6611 205.9L61.1482 199.413L44.5146 182.97L38.2176 189.101L16.0238 255.942V248.766L36.3167 188.222L36.483 187.699L50.1225 174.06L33.6791 157.427L20.2059 170.9L16 200.126V184.206L17.9247 170.21L18.2812 169.688L39.2869 148.682L16.0238 125.396V122.07L22.8435 128.889L39.2869 112.256L16.0238 88.9935V85.8332C24.9583 94.5774 33.7028 103.512 42.6374 112.256L24.4356 130.457L42.4711 148.659L35.2949 155.835L53.4967 174.036L46.1542 181.212L62.7877 197.845L79.4213 181.212L72.0788 174.036L90.2806 155.835L82.9381 148.659L101.14 130.457L82.9381 112.256L109.362 85.8332L69.1085 18.6355L62.8115 12.3386L56.3244 18.6355L16.0238 85.8332V81.2947L54.5185 17.4236L54.6848 17.0672L61.1719 10.5803L44.5384 -5.86272L38.2414 0.43409L16.0238 67.109V59.9331L36.1503 -0.611412L36.5068 -0.967842L50.1463 -14.7971L33.7028 -31.2401L20.2297 -17.7673L16.0238 11.2931V-4.81721L17.9485 -18.4563L18.3049 -19.1454L39.3107 -40.1507L16.0238 -63.437V-66.5973L22.6772 -59.944L39.3107 -76.387L16.0238 -99.6734V-103C24.9583 -94.0657 33.7028 -85.3214 42.4473 -76.387L24.4118 -58.352L42.4473 -40.1507L35.2711 -32.8083L53.473 -14.7733L46.1305 -7.43098L62.764 9.01202L79.2074 -7.43098L72.0312 -14.7733L90.2331 -32.8083L82.8905 -40.1507L101.092 -58.1857L82.8905 -76.387L109.314 -103H112.474L112.308 -102.644L124.569 -82.3512L136.617 -102.644L136.26 -103H139.587C148.332 -94.0657 157.266 -85.3214 166.011 -76.387L147.809 -58.352L166.011 -40.1507L158.668 -32.8083L176.87 -14.7733L169.694 -7.43098L186.137 9.01202L202.771 -7.43098L195.428 -14.7733L213.63 -32.8083L206.454 -40.1507L224.489 -58.1857L206.288 -76.387L232.877 -103H236.038L235.681 -102.644L247.943 -82.3512L260.18 -102.644L259.824 -103H262.984C271.919 -94.0657 280.663 -85.3214 289.598 -76.387L271.396 -58.352L289.431 -40.1507L282.255 -32.8083L300.457 -14.7733L293.115 -7.43098L309.748 9.01202L326.192 -7.43098L319.015 -14.7733L337.217 -32.8083L329.875 -40.1507L348.077 -58.1857L329.875 -76.387L356.298 -103H359.625L359.269 -102.644L371.53 -82.3512L383.553 -102.644L383.197 -103H386.524C395.268 -94.0657 404.203 -85.3214 412.947 -76.387L394.745 -58.352L412.947 -40.1507L405.771 -32.8083L423.807 -14.7733L416.63 -7.43098L433.074 9.01202L449.707 -7.43098L442.531 -14.7733L460.567 -32.8083L453.391 -40.1507L471.426 -58.1857L453.224 -76.387L479.838 -103H482.998L482.642 -102.644L494.903 -82.3512L507.117 -102.644L506.76 -103H509.921C518.855 -94.0657 527.6 -85.3214 536.534 -76.387L518.333 -58.352L536.534 -40.1507L529.192 -32.8083L547.394 -14.7733L540.051 -7.43098L556.685 9.01202L573.318 -7.43098L565.976 -14.7733L584.178 -32.8083L576.835 -40.1507L595.037 -58.1857L576.835 -76.387L603.259 -103H606.585L606.229 -102.644L618.49 -82.3512L630.752 -102.644L630.229 -103H633.555C642.3 -94.0657 651.235 -85.3214 659.979 -76.387L641.777 -58.352L659.979 -40.1507L652.803 -32.8083L670.838 -14.7733L663.662 -7.43098L680.296 9.01202L696.739 -7.43098L689.563 -14.7733L707.598 -32.8083L700.422 -40.1507L718.458 -58.1857L700.256 -76.387L726.87 -103H730.03L729.864 -102.644L741.935 -82.3512L754.196 -102.644L753.84 -103H757V-99.6734L755.955 -100.909L743.527 -80.2602L757 -66.621V-63.4608L743.17 -77.4563V71.8376L745.784 74.4514L756.976 -4.81721V11.2931L747.709 76.3998L750.513 79.37L757 59.9331V67.109L752.461 81.1046L755.432 84.0748L757 81.271V85.8094V88.9697L755.764 87.7341L743.337 108.383L756.976 122.022V125.349L743.147 111.353V260.647L745.76 263.261L756.953 183.992V200.103L747.685 265.209L750.656 268.013L756.953 248.766V255.942L752.414 269.938L755.384 272.908L756.953 270.104V274.476V277.803L755.907 276.567L743.479 297.216L756.953 310.855V314.015L743.123 300.186V449.29L745.737 451.904L756.929 372.635V388.746L747.661 454.019L750.465 456.823L756.953 437.385V444.562L752.414 458.557L755.384 461.527L756.953 458.914V463.286V466.446L755.717 465.21L743.289 486.025L756.929 499.665V502.825L743.099 488.829V638.123L745.713 640.737L756.905 561.468V577.389L747.638 642.662L750.442 645.632L756.929 626.195V633.205L752.39 647.39L755.36 650.36L756.929 647.557V651.929H753.768L741.863 640.214L729.959 651.929H726.798L726.751 652ZM728.509 650.432L731.479 647.271L704.533 566.767L698.236 560.47L681.793 576.913L688.28 583.4L688.446 583.567L728.533 650.432H728.509ZM733.238 645.537L736.042 642.733L722.569 548.4L709.095 535.093L692.652 551.536L706.292 565.175L706.648 565.698L733.262 645.513L733.238 645.537ZM738.133 640.642L740.747 638.028V488.924L703.464 526.206L724.47 547.212L724.826 547.734L738.133 640.666V640.642ZM740.414 485.93L727.986 465.282L703.488 489.78L720.121 506.413L740.414 485.93ZM726.774 463.357L686.521 396.159L680.224 389.862L673.737 396.159L633.484 463.357C642.229 472.101 651.163 481.036 659.908 489.78L641.706 507.981L659.908 526.182L652.732 533.358L670.767 551.56L663.591 558.902L680.224 575.345L696.668 558.902L689.492 551.56L707.527 533.358L700.351 526.182L718.386 507.981L700.185 489.78L726.798 463.357H726.774ZM680.224 386.702L696.668 370.069L689.492 362.727L707.527 344.692L700.351 337.349L718.386 319.314L700.185 301.113L726.798 274.5L686.545 207.469L680.248 200.982L673.761 207.469L633.508 274.5C642.252 283.434 651.187 292.179 659.932 301.113L641.73 319.314L659.932 337.349L652.755 344.692L670.791 362.727L663.615 370.069L680.248 386.702H680.224ZM728.533 272.956L731.503 269.795L704.557 189.125L698.26 182.994L681.816 199.437L688.304 205.924L688.47 206.09L728.557 272.956H728.533ZM733.262 268.061L736.232 265.257L722.592 170.923L709.286 157.451L692.652 174.084L706.482 187.723L706.648 188.246L733.262 268.061ZM738.157 263.166L740.77 260.552V111.448L703.488 148.73L724.493 169.735L724.85 170.258L738.157 263.189V263.166ZM754.077 274.88L741.816 262.619L729.745 274.88L741.816 295.173L754.077 274.88ZM728.01 276.448L703.511 301.137L720.145 317.77L740.438 297.287L728.01 276.472V276.448ZM740.794 300.258L703.511 337.349L724.517 358.355L724.874 359.044L738.18 451.975L740.794 449.361V300.258ZM736.065 453.924L722.592 359.757L709.119 346.284L692.676 362.727L706.315 376.556L706.672 376.912L733.285 456.894L736.089 453.924H736.065ZM731.527 458.652L704.581 377.982L698.284 371.685L681.84 388.318L688.327 394.805L688.494 394.971L728.58 461.646L731.551 458.676L731.527 458.652ZM729.602 463.737L741.863 484.029L754.125 463.737L741.863 451.476L729.602 463.737ZM740.462 108.478L728.034 87.8291L703.535 112.327L720.169 128.96L740.462 108.478ZM726.822 85.9044L686.569 18.7067L680.272 12.4099L673.785 18.7067L633.532 85.9044C642.276 94.6487 651.211 103.417 659.955 112.327L641.92 130.529L659.955 148.73L652.779 155.906L670.981 174.107L663.638 181.283L680.272 197.916L696.715 181.283L689.539 174.107L707.575 155.906L700.398 148.73L718.434 130.529L700.398 112.327L726.822 85.9044ZM728.058 -101.004L703.559 -76.3158L720.002 -59.8728L740.485 -80.1651L728.058 -100.98V-101.004ZM740.842 -77.385L703.559 -40.1031L724.565 -19.0979L724.921 -18.4088L738.228 74.5227L740.842 71.9089V-77.4563V-77.385ZM736.113 76.4473L722.64 -17.7197L709.167 -31.1926L692.723 -14.7495L706.363 -0.920319L706.719 -0.563889L733.333 79.4175L736.137 76.4473H736.113ZM731.574 81.1759L704.628 0.505386L698.331 -5.79144L681.888 10.6516L688.375 17.1385L688.541 17.4949L728.628 84.1698L731.598 81.1996L731.574 81.1759ZM729.816 86.2609L741.887 106.553L754.149 86.2609L741.887 73.9999L729.816 86.2609ZM605.041 650.503L608.011 647.343L581.231 566.839L574.934 560.542L558.301 576.985L564.788 583.472L564.954 583.638L605.041 650.503ZM609.936 645.608L612.74 642.804L599.267 548.471L585.793 535.164L569.16 551.607L582.99 565.247L583.156 565.769L609.936 645.584V645.608ZM614.664 640.713L617.278 638.099V488.996L580.186 526.278L601.001 547.283L601.358 547.806L614.664 640.737V640.713ZM619.56 638.266L622.173 640.88L635.48 547.782L635.837 547.259L656.842 526.254L619.56 488.972V638.266ZM624.288 642.828L627.092 645.798L653.706 565.817L654.062 565.294L667.702 551.655L651.258 535.022L637.785 548.495L624.312 642.828H624.288ZM628.827 647.557L631.797 650.527L671.884 583.662L672.05 583.495L678.537 577.008L662.094 560.565L655.797 566.862L628.851 647.533L628.827 647.557ZM617.112 486.025L604.518 465.377L580.019 489.875L596.653 506.508L617.136 486.025H617.112ZM603.473 463.452L563.053 396.254L556.756 389.957L550.459 396.254L510.04 463.452C518.974 472.196 527.719 481.131 536.653 489.875L518.451 508.076L536.653 526.278L529.311 533.454L547.513 551.655L540.17 558.997L556.804 575.44L573.437 558.997L566.095 551.655L584.296 533.454L576.954 526.278L595.156 508.076L576.954 489.875L603.568 463.452H603.473ZM556.732 386.797L573.366 370.164L566.023 362.822L584.225 344.787L576.883 337.444L595.084 319.409L576.883 301.208L603.496 274.595L563.243 207.564L556.756 201.077L550.459 207.564L510.04 274.595C518.974 283.529 527.719 292.274 536.653 301.208L518.451 319.409L536.653 337.444L529.311 344.787L547.513 362.822L540.17 370.164L556.804 386.797H556.732ZM605.041 273.051L608.011 269.89L581.231 189.22L574.934 183.089L558.301 199.532L564.788 206.019L564.954 206.185L605.041 273.051ZM609.936 268.156L612.74 265.352L599.267 171.018L585.793 157.546L569.35 174.179L582.99 187.818L583.346 188.341L609.96 268.156H609.936ZM614.664 263.261L617.278 260.647V111.543L580.186 148.825L601.191 169.83L601.358 170.353L614.664 263.285V263.261ZM619.56 260.813L622.173 263.427L635.48 170.329L635.837 169.807L656.842 148.801L619.56 111.519V260.813ZM624.288 265.352L627.092 268.156L653.706 188.341L654.062 187.818L667.702 174.179L651.258 157.546L637.785 171.018L624.312 265.352H624.288ZM628.827 270.08L631.797 273.051L672.05 206.185L672.217 206.019L678.513 199.532L662.07 183.089L655.773 189.22L628.827 270.08ZM632.32 465.4L619.892 486.216L640.185 506.508L656.819 489.875L632.32 465.377V465.4ZM564.93 395.042L605.017 461.717L607.987 458.747L581.207 378.077L574.91 371.78L558.277 388.413L564.764 394.9L564.93 395.066V395.042ZM606.229 463.832L618.49 484.125L630.561 463.832L618.49 451.571L606.229 463.832ZM631.773 461.741L671.86 395.066L672.026 394.9L678.513 388.413L662.07 371.78L655.773 378.077L628.827 458.747L631.797 461.717L631.773 461.741ZM627.045 457.013L653.658 377.031L654.015 376.675L667.654 362.845L651.211 346.402L637.738 359.875L624.264 454.209L627.068 457.013H627.045ZM622.15 452.118L635.456 359.186L635.813 358.497L656.819 337.492L619.536 300.4V449.504L622.15 452.118ZM617.255 300.376L580.162 337.468L600.977 358.473L601.334 359.162L614.641 452.094L617.255 449.48V300.376ZM612.716 454.042L599.243 359.875L585.77 346.402L569.136 362.845L582.966 376.675L583.132 377.031L609.912 457.013L612.716 454.042ZM596.605 317.889L617.088 297.406L604.661 276.591L579.972 301.279L596.605 317.912V317.889ZM619.892 297.406L640.185 317.699L656.819 301.256L632.32 276.757L619.892 297.406ZM630.752 274.999L618.49 262.738L606.229 274.999L618.49 295.291L630.752 274.999ZM617.112 108.573L604.684 87.9242L579.995 112.422L596.629 129.055L617.112 108.573ZM603.473 85.9995L563.053 18.8018L556.756 12.505L550.459 18.8018L510.04 85.9995C518.974 94.7438 527.719 103.512 536.653 112.422L518.451 130.624L536.653 148.825L529.311 156.001L547.513 174.202L540.336 181.378L556.78 198.012L573.413 181.378L566.071 174.202L584.273 156.001L576.93 148.825L595.132 130.624L576.93 112.422L603.544 85.9995H603.473ZM604.708 -100.909L580.019 -76.2207L596.653 -59.7777L617.136 -80.0701L604.708 -100.885V-100.909ZM619.94 -80.0938L640.233 -59.8015L656.866 -76.2445L632.367 -100.743L619.94 -80.0938ZM632.367 87.9242L619.94 108.573L640.233 129.055L656.866 112.422L632.367 87.9242ZM564.978 17.5662L605.065 84.2411L608.035 81.271L581.255 0.600426L574.958 -5.69639L558.324 10.7466L564.811 17.2335L564.978 17.5899V17.5662ZM606.276 86.3559L618.538 106.648L630.799 86.3559L618.538 74.0949L606.276 86.3559ZM631.821 84.2649L671.908 17.5899L672.074 17.2335L678.561 10.7466L662.118 -5.69639L655.821 0.600426L628.874 81.271L631.845 84.2411L631.821 84.2649ZM627.092 79.5363L653.706 -0.445084L654.062 -0.801514L667.702 -14.6307L651.258 -31.0737L637.785 -17.6009L624.312 76.5661L627.116 79.5363H627.092ZM622.197 74.6415L635.504 -18.29L635.86 -18.9791L656.866 -39.9843L619.583 -77.2662V72.0277L622.197 74.6415ZM617.302 -77.2662L580.209 -39.9843L601.025 -18.9791L601.381 -18.29L614.688 74.6415L617.302 72.0277V-77.4563V-77.2662ZM612.764 76.5661L599.29 -17.6009L585.817 -31.0737L569.184 -14.6307L583.013 -0.801514L583.18 -0.445084L609.96 79.5363L612.764 76.5661ZM481.501 650.598L484.662 647.438L457.715 566.934L451.418 560.637L434.975 577.08L441.462 583.567L441.628 583.733L481.525 650.598H481.501ZM486.396 645.703L489.2 642.899L475.727 548.566L462.254 535.259L445.81 551.702L459.45 565.342L459.806 565.864L486.42 645.679L486.396 645.703ZM491.291 640.808L493.905 638.195V489.091L456.622 526.373L477.628 547.378L477.984 547.901L491.291 640.832V640.808ZM496.186 638.361L498.8 640.975L512.107 547.877L512.273 547.354L533.279 526.349L496.186 489.067V638.361ZM500.725 642.923L503.529 645.893L530.309 565.912L530.475 565.389L544.305 551.75L527.671 535.117L514.198 548.59L500.725 642.923ZM505.453 647.652L508.424 650.622L548.511 583.757L548.677 583.59L555.164 577.104L538.53 560.661L532.233 566.957L505.453 647.628V647.652ZM493.549 486.12L481.121 465.472L456.622 489.97L473.066 506.603L493.549 486.12ZM479.909 463.547L439.656 396.349L433.169 390.052L426.872 396.349L386.619 463.547C395.363 472.291 404.298 481.226 413.042 489.97L394.841 508.171L413.042 526.373L405.866 533.549L423.902 551.75L416.725 559.092L433.169 575.535L449.802 559.092L442.626 551.75L460.662 533.549L453.486 526.373L471.521 508.171L453.319 489.97L479.933 463.547H479.909ZM433.169 386.892L449.802 370.259L442.626 362.917L460.662 344.882L453.486 337.539L471.521 319.504L453.319 301.303L479.933 274.69L439.68 207.659L433.383 201.172L426.896 207.659L386.643 274.69C395.387 283.624 404.322 292.369 413.066 301.303L394.864 319.504L413.066 337.539L405.89 344.882L423.925 362.917L416.749 370.259L433.193 386.892H433.169ZM481.644 273.146L484.614 269.985L457.668 189.315L451.371 183.184L434.927 199.627L441.414 206.114L441.581 206.281L481.668 273.146H481.644ZM486.372 268.251L489.176 265.447L475.703 171.113L462.23 157.641L445.787 174.274L459.426 187.913L459.783 188.436L486.396 268.251H486.372ZM491.267 263.356L493.881 260.742V111.638L456.598 148.92L477.604 169.925L477.961 170.448L491.267 263.38V263.356ZM496.162 260.908L498.776 263.522L512.083 170.424L512.44 169.902L533.255 148.896L496.162 111.614V260.908ZM500.701 265.447L503.505 268.251L530.285 188.436L530.451 187.913L544.281 174.274L527.647 157.641L514.174 171.113L500.701 265.447ZM505.43 270.175L508.4 273.146L548.487 206.281L548.653 206.114L555.14 199.627L538.507 183.184L532.21 189.315L505.43 270.175ZM508.756 465.495L496.329 486.311L516.812 506.603L533.255 489.97L508.756 465.472V465.495ZM441.557 395.137L481.454 461.812L484.614 458.842L457.668 378.172L451.371 371.875L434.927 388.508L441.414 394.995L441.581 395.161L441.557 395.137ZM482.689 463.927L494.951 484.22L507.212 463.927L494.951 451.666L482.689 463.927ZM508.424 461.836L548.511 395.161L548.677 394.995L555.164 388.508L538.53 371.875L532.233 378.172L505.453 458.842L508.424 461.812V461.836ZM503.529 457.108L530.309 377.126L530.475 376.77L544.305 362.941L527.671 346.498L514.198 359.97L500.725 454.304L503.529 457.108ZM498.8 452.213L512.107 359.281L512.273 358.592L533.279 337.587L496.186 300.495V449.599L498.8 452.213ZM493.905 300.471L456.622 337.563L477.628 358.568L477.984 359.257L491.291 452.189L493.905 449.575V300.471ZM489.176 454.137L475.703 359.97L462.23 346.498L445.787 362.941L459.426 376.77L459.783 377.126L486.396 457.108L489.2 454.137H489.176ZM473.066 317.984L493.549 297.501L481.121 276.686L456.622 301.374L473.066 318.007V317.984ZM496.353 297.501L516.836 317.794L533.279 301.351L508.78 276.852L496.353 297.501ZM507.212 275.094L494.951 262.833L482.689 275.094L494.951 295.386L507.212 275.094ZM493.572 108.668L481.145 88.0192L456.646 112.517L473.279 129.15L493.572 108.668ZM479.933 86.0945L439.68 18.8968L433.193 12.6L426.896 18.8968L386.643 86.0945C395.387 94.8388 404.322 103.607 413.066 112.517L394.864 130.719L413.066 148.92L405.89 156.096L423.925 174.297L416.749 181.473L433.383 198.107L449.826 181.473L442.65 174.297L460.686 156.096L453.509 148.92L471.545 130.719L453.343 112.517L479.957 86.0945H479.933ZM481.169 -100.814L456.67 -76.1257L473.113 -59.6827L493.596 -79.975L481.169 -100.79V-100.814ZM496.4 -79.9988L516.883 -59.7064L533.327 -76.1494L508.828 -100.648L496.4 -79.9988ZM508.828 88.0192L496.4 108.668L516.883 129.15L533.327 112.517L508.828 88.0192ZM441.628 17.6612L481.715 84.3362L484.685 81.366L457.739 0.695473L451.442 -5.60134L434.999 10.8417L441.486 17.3286L441.652 17.685L441.628 17.6612ZM482.761 86.451L495.022 106.743L507.283 86.451L495.022 74.19L482.761 86.451ZM508.495 84.3599L548.582 17.685L548.748 17.3286L555.235 10.8417L538.602 -5.60134L532.305 0.695473L505.525 81.366L508.495 84.3362V84.3599ZM503.6 79.6314L530.38 -0.350037L530.546 -0.706459L544.376 -14.5357L527.742 -30.9787L514.269 -17.5059L500.796 76.6612L503.6 79.6314ZM498.871 74.7365L512.178 -18.195L512.345 -18.8841L533.35 -39.8893L496.258 -77.1712V72.1227L498.871 74.7365ZM493.976 -77.1712L456.693 -39.8893L477.699 -18.8841L478.056 -18.195L491.362 74.7365L493.976 72.1227V-77.4563V-77.1712ZM489.248 76.6612L475.775 -17.5059L462.301 -30.9787L445.858 -14.5357L459.497 -0.706459L459.854 -0.350037L486.467 79.6314L489.271 76.6612H489.248ZM358.152 650.693L361.122 647.533L334.342 567.029L328.045 560.732L311.411 577.175L317.899 583.662L318.065 583.828L358.152 650.693ZM362.88 645.798L365.851 642.994L352.378 548.661L338.904 535.354L322.271 551.797L336.1 565.437L336.267 565.959L362.88 645.774V645.798ZM367.775 640.903L370.389 638.29V489.186L333.106 526.468L354.112 547.473L354.469 547.996L367.775 640.927V640.903ZM372.67 638.456L375.284 641.07L388.591 547.972L388.948 547.449L409.953 526.444L372.67 489.162V638.456ZM377.209 643.018L380.179 645.988L406.793 566.007L407.149 565.484L420.789 551.845L404.155 535.212L390.848 548.685L377.209 643.018ZM381.938 647.747L384.908 650.717L424.995 583.852L425.161 583.685L431.648 577.199L415.205 560.756L408.908 567.052L381.961 647.723L381.938 647.747ZM370.033 486.216L357.605 465.567L333.106 490.065L349.74 506.698L370.033 486.216ZM356.56 463.642L316.14 396.444L309.843 390.148L303.356 396.444L263.103 463.642C272.038 472.386 280.782 481.321 289.717 490.065L271.515 508.266L289.55 526.468L282.374 533.644L300.576 551.845L293.233 559.187L309.867 575.63L326.5 559.187L319.158 551.845L337.36 533.644L330.017 526.468L348.219 508.266L330.017 490.065L356.631 463.642H356.56ZM309.819 386.987L326.453 370.354L319.11 363.012L337.312 344.977L329.97 337.634L348.172 319.599L329.97 301.398L356.583 274.785L316.164 207.754L309.867 201.267L303.57 207.754L263.15 274.785C272.085 283.719 280.83 292.464 289.764 301.398L271.562 319.599L289.598 337.634L282.422 344.977L300.623 363.012L293.281 370.354L309.914 386.987H309.819ZM358.128 273.241L361.098 270.08L334.318 189.41L328.021 183.279L311.388 199.722L317.875 206.209L318.041 206.376L358.128 273.241ZM363.023 268.346L365.827 265.542L352.354 171.208L338.881 157.736L322.247 174.369L336.077 188.008L336.243 188.531L363.023 268.346ZM367.752 263.451L370.365 260.837V111.733L333.273 149.015L354.088 170.02L354.445 170.543L367.752 263.475V263.451ZM372.647 261.003L375.26 263.617L388.567 170.519L388.924 169.997L409.93 148.991L372.647 111.71V261.003ZM377.375 265.542L380.179 268.346L406.793 188.531L407.149 188.008L420.789 174.369L404.345 157.736L390.872 171.208L377.399 265.542H377.375ZM381.914 270.27L384.884 273.241L424.971 206.376L425.137 206.209L431.624 199.722L415.181 183.279L408.884 189.41L381.938 270.27H381.914ZM385.407 465.591L372.979 486.406L393.272 506.698L409.906 490.065L385.407 465.567V465.591ZM318.017 395.232L358.104 461.907L361.074 458.937L334.294 378.267L327.997 371.97L311.364 388.603L317.851 395.09L318.017 395.256V395.232ZM359.316 464.022L371.577 484.315L383.649 464.022L371.387 451.761L359.316 464.022ZM384.86 461.931L424.947 395.256L425.114 395.09L431.601 388.603L415.157 371.97L408.86 378.267L381.914 458.937L384.884 461.907L384.86 461.931ZM380.132 457.203L406.745 377.221L407.102 376.865L420.741 363.036L404.108 346.593L390.801 360.065L377.161 454.399L380.132 457.203ZM375.237 452.308L388.544 359.376L388.9 358.687L409.906 337.682L372.623 300.59V449.694L375.237 452.308ZM370.342 300.566L333.059 337.658L354.065 358.663L354.421 359.353L367.728 452.284L370.342 449.67V300.566ZM365.803 454.232L352.33 360.065L338.857 346.593L322.223 363.036L336.053 376.865L336.219 377.221L362.999 457.203L365.803 454.232ZM349.692 318.079L370.175 297.596L357.581 276.781L333.083 301.469L349.716 318.102L349.692 318.079ZM372.979 297.596L393.272 317.889L409.906 301.446L385.407 276.947L372.979 297.596ZM383.649 275.189L371.387 262.928L359.316 275.189L371.577 295.481L383.649 275.189ZM370.009 108.763L357.581 88.1143L333.083 112.612L349.716 129.246L370.009 108.763ZM356.536 86.1896L316.116 18.9919L309.819 12.6951L303.332 18.9919L263.079 86.1896C272.014 94.9339 280.758 103.702 289.693 112.612L271.491 130.814L289.693 149.015L282.35 156.191L300.552 174.393L293.21 181.569L309.843 198.202L326.477 181.569L319.134 174.393L337.336 156.191L329.994 149.015L348.195 130.814L329.994 112.612L356.607 86.1896H356.536ZM357.581 -100.719L333.083 -76.0306L349.716 -59.5876L370.199 -79.88L357.605 -100.695L357.581 -100.719ZM372.979 -79.9038L393.272 -59.6114L409.906 -76.0544L385.407 -100.553L372.979 -79.9038ZM385.407 88.1143L372.979 108.763L393.272 129.246L409.906 112.612L385.407 88.1143ZM318.017 17.7563L358.104 84.4312L361.074 81.461L334.294 0.79052L327.997 -5.5063L311.364 10.9367L317.851 17.4236L318.017 17.78V17.7563ZM359.316 86.546L371.577 106.838L383.649 86.546L371.577 74.285L359.316 86.546ZM384.86 84.455L424.947 17.78L425.114 17.4236L431.601 10.9367L415.157 -5.5063L408.86 0.79052L381.914 81.461L384.884 84.4312L384.86 84.455ZM380.132 79.7264L406.745 -0.25499L407.102 -0.611412L420.741 -14.4406L404.108 -30.8836L390.801 -17.4108L377.161 76.7562L380.132 79.7264ZM375.237 74.8315L388.544 -18.0999L388.9 -18.789L409.906 -39.7942L372.623 -77.0761V72.2178L375.237 74.8315ZM370.342 -77.0761L333.059 -39.7942L354.065 -18.789L354.421 -18.0999L367.728 74.8315L370.342 72.2178V-77.4563V-77.0761ZM365.803 76.7562L352.33 -17.4108L338.857 -30.8836L322.223 -14.4406L336.053 -0.611412L336.219 -0.25499L362.999 79.7264L365.803 76.7562ZM234.541 650.788L237.701 647.628L210.755 567.124L204.458 560.827L188.014 577.27L194.311 583.757L194.478 583.923L234.565 650.788H234.541ZM239.436 645.893L242.24 643.089L228.767 548.756L215.293 535.45L198.85 551.892L212.49 565.532L212.846 566.054L239.46 645.87L239.436 645.893ZM244.331 640.998L246.945 638.385V489.281L209.662 526.563L230.668 547.568L231.024 548.091L244.331 641.022V640.998ZM249.226 638.551L251.673 641.165L264.98 548.067L265.337 547.544L286.342 526.539L249.06 489.257L249.226 638.551ZM253.764 643.113L256.568 646.083L283.348 566.102L283.515 565.579L297.154 551.94L280.711 535.307L267.238 548.78L253.764 643.113ZM258.303 647.842L261.463 650.812L301.55 583.947L301.717 583.781L308.204 577.294L291.57 560.851L285.273 567.147L258.327 647.818L258.303 647.842ZM246.588 486.311L234.161 465.662L209.662 490.16L226.105 506.793L246.588 486.311ZM232.949 463.737L192.696 396.539L186.209 390.243L179.912 396.539L139.658 463.737C148.403 472.481 157.337 481.416 166.082 490.16L147.88 508.361L166.082 526.563L158.739 533.739L176.941 551.94L169.765 559.282L186.209 575.725L202.842 559.282L195.5 551.94L213.701 533.739L206.525 526.563L224.561 508.361L206.359 490.16L232.973 463.737H232.949ZM186.209 387.082L202.842 370.449L195.5 363.107L213.701 345.072L206.525 337.73L224.561 319.694L206.359 301.493L232.973 274.88L192.719 207.849L186.232 201.362L179.935 207.849L139.682 274.88C148.427 283.815 157.361 292.559 166.106 301.493L147.904 319.694L166.106 337.73L158.763 345.072L176.965 363.107L169.789 370.449L186.232 387.082H186.209ZM234.517 273.336L237.677 270.175L210.731 189.505L204.434 183.374L187.991 199.817L194.478 206.304L194.644 206.471L234.541 273.336H234.517ZM239.412 268.441L242.216 265.637L228.743 171.304L215.27 157.831L198.826 174.464L212.466 188.103L212.822 188.626L239.436 268.441H239.412ZM244.307 263.546L246.921 260.932V111.828L209.638 149.11L230.644 170.115L231 170.638L244.307 263.57V263.546ZM249.202 261.098L251.816 263.712L265.123 170.614L265.289 170.092L286.295 149.086L249.202 111.805V261.098ZM253.741 265.637L256.545 268.441L283.325 188.626L283.491 188.103L297.321 174.464L280.687 157.831L267.214 171.304L253.741 265.637ZM258.469 270.365L261.44 273.336L301.526 206.471L301.693 206.304L308.18 199.817L291.546 183.374L285.249 189.505L258.469 270.365ZM261.796 465.686L249.368 486.501L269.851 506.793L286.295 490.16L261.796 465.662V465.686ZM194.406 395.328L234.493 462.003L237.654 459.032L210.707 378.362L204.41 372.065L187.967 388.698L194.264 395.185L194.43 395.351L194.406 395.328ZM235.705 464.117L247.966 484.41L260.228 464.117L247.966 451.856L235.705 464.117ZM261.44 462.026L301.526 395.351L301.693 395.185L308.18 388.698L291.546 372.065L285.249 378.362L258.303 459.032L261.463 462.003L261.44 462.026ZM256.545 457.298L283.325 377.316L283.491 376.96L297.13 363.131L280.687 346.688L267.214 360.16L253.741 454.494L256.545 457.298ZM251.65 452.403L264.956 359.471L265.313 358.782L286.319 337.777L249.036 300.685L249.202 449.789L251.65 452.403ZM246.921 300.661L209.638 337.753L230.644 358.759L231 359.448L244.307 452.379L246.921 449.765V300.661ZM242.192 454.328L228.719 360.16L215.246 346.688L198.802 363.131L212.442 376.96L212.798 377.316L239.412 457.298L242.216 454.328H242.192ZM226.081 318.174L246.564 297.691L234.137 276.876L209.638 301.564L226.081 318.198V318.174ZM249.368 297.691L269.851 317.984L286.295 301.541L261.796 277.042L249.368 297.691ZM260.228 275.284L247.966 263.023L235.705 275.284L247.966 295.577L260.228 275.284ZM246.588 108.858L234.161 88.2093L209.662 112.707L226.105 129.341L246.588 108.858ZM232.949 86.2846L192.696 19.0869L186.209 12.7901L179.912 19.0869L139.658 86.2846C148.403 95.0289 157.337 103.797 166.082 112.707L147.88 130.909L166.082 149.11L158.906 156.286L176.941 174.488L169.765 181.664L186.209 198.297L202.842 181.664L195.666 174.488L213.701 156.286L206.525 149.11L224.561 130.909L206.359 112.707L232.973 86.2846H232.949ZM234.184 -100.624L209.686 -75.9356L226.129 -59.4926L246.612 -79.7849L234.184 -100.6V-100.624ZM249.416 -79.8087L269.899 -59.5163L286.342 -75.9593L261.749 -100.909L249.321 -80.2602L249.416 -79.8087ZM261.844 88.2093L249.416 108.858L269.899 129.341L286.342 112.707L261.844 88.2093ZM194.454 17.8513L234.541 84.5263L237.701 81.5561L210.755 0.885567L204.458 -5.41125L188.014 11.0318L194.311 17.5187L194.478 17.8751L194.454 17.8513ZM235.753 86.6411L248.014 106.933L260.275 86.6411L248.014 74.3801L235.753 86.6411ZM261.487 84.55L301.574 17.8751L301.74 17.5187L308.227 11.0318L291.594 -5.41125L285.297 0.885567L258.351 81.5561L261.511 84.5263L261.487 84.55ZM256.592 79.8215L283.372 -0.15995L283.538 -0.516365L297.178 -14.3456L280.735 -30.7886L267.261 -17.3158L253.788 76.8513L256.592 79.8215ZM251.697 74.9266L265.004 -18.0049L265.36 -18.694L286.366 -39.6992L249.083 -76.9811V72.3128L251.697 74.9266ZM246.968 -76.9811L209.686 -39.6992L230.691 -18.694L231.048 -18.0049L244.355 74.9266L246.968 72.3128V-77.4563V-76.9811ZM242.24 76.8513L228.767 -17.3158L215.293 -30.7886L198.85 -14.3456L212.49 -0.516365L212.846 -0.15995L239.46 79.8215L242.264 76.8513H242.24ZM111.144 650.883L114.114 647.723L87.1677 567.219L81.0371 560.922L64.4036 577.365L70.8906 583.852L71.057 584.018L111.144 650.883ZM115.872 645.988L118.843 643.184L105.37 548.851L91.8964 535.545L75.2629 551.988L89.0925 565.627L89.2588 566.149L115.872 645.965V645.988ZM120.767 641.093L123.381 638.48V489.376L86.0984 526.658L107.104 547.663L107.461 548.186L120.767 641.117V641.093ZM125.662 638.646L128.276 641.26L141.583 548.162L141.94 547.639L162.945 526.634L125.662 489.352V638.646ZM130.201 643.208L133.171 646.178L159.785 566.197L160.141 565.674L173.781 552.035L157.147 535.402L143.674 548.875L130.201 643.208ZM134.93 647.937L137.9 650.907L177.987 584.042L178.153 583.876L184.64 577.389L168.197 560.946L161.9 567.242L134.953 647.913L134.93 647.937ZM118.819 265.708L105.346 171.375L91.8727 157.902L75.2391 174.535L89.0687 188.174L89.2351 188.697L115.849 268.512L118.819 265.708ZM114.09 270.247L87.3103 189.576L81.0133 183.446L64.3798 199.889L70.8669 206.376L71.0332 206.542L111.12 273.407L114.09 270.247ZM112.332 275.332L124.593 295.624L136.664 275.332L124.403 263.071L112.332 275.332ZM137.876 273.407L177.963 206.542L178.129 206.376L184.616 199.889L168.173 183.446L161.876 189.576L134.93 270.437L137.9 273.407H137.876ZM133.148 268.512L159.761 188.697L160.118 188.174L173.757 174.535L157.124 157.902L143.817 171.375L130.177 265.708L133.148 268.512ZM128.253 263.784L141.559 170.686L141.916 170.163L162.922 149.158L125.639 111.876V261.17L128.253 263.784ZM123.001 486.406L110.573 465.757L86.0747 490.255L102.708 506.888L123.001 486.406ZM62.7877 387.177L79.2312 370.544L72.055 363.202L90.2568 345.167L82.9143 337.825L101.116 319.79L82.9143 301.588L109.338 274.975L69.0847 207.944L62.7877 201.457L56.3007 207.944L16.0238 274.5C24.9583 283.434 33.7028 292.179 42.4473 301.113L24.4118 319.314L42.4473 337.349L35.2711 344.692L53.473 362.727L46.1305 370.069L62.764 386.702L62.7877 387.177ZM138.399 465.757L125.971 486.572L146.264 506.864L162.898 490.231L138.399 465.733V465.757ZM71.0095 395.399L111.096 462.074L114.067 459.104L87.1202 378.433L80.9896 372.136L64.356 388.769L70.8431 395.256L71.0095 395.423V395.399ZM112.308 464.189L124.569 484.481L136.641 464.189L124.379 451.928L112.308 464.189ZM137.852 462.098L177.939 395.423L178.106 395.256L184.593 388.769L168.149 372.136L161.852 378.433L134.906 459.104L137.876 462.074L137.852 462.098ZM133.124 457.369L159.737 377.388L160.094 377.031L173.733 363.202L157.1 346.759L143.627 360.232L130.154 454.565L133.124 457.369ZM128.229 452.474L141.536 359.543L141.892 358.854L162.898 337.848L125.615 300.757V449.86L128.229 452.474ZM123.334 300.733L86.0509 337.825L107.057 358.83L107.413 359.519L120.72 452.45L123.334 449.837V300.733ZM118.795 454.399L105.322 360.232L91.8489 346.759L75.2154 363.202L89.045 377.031L89.2113 377.388L115.825 457.369L118.795 454.399ZM102.684 318.245L122.977 297.763L110.55 276.947L86.0509 301.636L102.684 318.269V318.245ZM125.971 297.763L146.264 318.055L162.898 301.612L138.399 277.114L125.971 297.763ZM123.001 108.929L110.573 88.2806L86.0747 112.779L102.708 129.412L123.001 108.929ZM110.526 -101.075L86.0272 -76.387L102.661 -59.944L122.954 -80.2364L110.526 -101.075ZM125.924 -80.2602L146.217 -59.9678L162.85 -76.4108L138.351 -100.909L125.924 -80.2602ZM138.351 87.7578L125.924 108.407L146.217 128.889L162.85 112.256L138.351 87.7578ZM70.9619 17.3998L111.049 84.0748L114.019 81.1046L87.0727 0.43409L80.9421 -5.86272L64.3085 10.5803L70.7956 17.0672L70.9619 17.4236V17.3998ZM112.261 86.1896L124.522 106.482L136.593 86.1896L124.332 73.9286L112.261 86.1896ZM137.805 84.0986L177.892 17.4236L178.058 17.0672L184.545 10.5803L168.102 -5.86272L161.805 0.43409L134.858 81.1046L137.829 84.0748L137.805 84.0986ZM133.076 79.37L159.69 -0.611412L160.046 -0.967842L173.686 -14.7971L157.052 -31.2401L143.579 -17.7673L130.106 76.3998L133.076 79.37ZM128.181 74.4751L141.488 -18.4563L141.845 -19.1454L162.85 -40.1507L125.567 -77.4326V71.8614L128.181 74.4751ZM123.286 -77.4326L86.0034 -40.1507L107.009 -19.1454L107.366 -18.4563L120.672 74.4751L123.286 71.8614V-77.4563V-77.4326ZM118.748 76.3998L105.275 -17.7673L91.8014 -31.2401L75.1678 -14.7971L88.9974 -0.967842L89.1638 -0.611412L115.777 79.37L118.748 76.3998Z" fill="#D4DEED"/>
<path d="M123.593 1015.62V866.364L86.2782 903.635L107.302 924.634L107.659 925.323L120.977 1018.06L123.593 1015.62ZM727.558 1407V1406.83L687.27 1339.82L680.967 1333.53L674.475 1339.82L634.187 1407H630.857L618.942 1395.1L607.217 1407H603.887L604.054 1406.83L563.599 1339.82L557.297 1333.53L550.994 1339.82L510.54 1407H507.377L495.461 1395.1L483.546 1407H480.383V1406.83L440.095 1339.82L433.602 1333.53L427.3 1339.82L387.012 1407H383.682L371.767 1395.1L359.852 1407H356.689V1406.83L316.401 1339.82L310.098 1333.53L303.606 1339.82L263.317 1407H260.154L248.239 1395.1L236.324 1407H233.161V1406.83L192.873 1339.82L186.38 1333.53L180.078 1339.82L139.79 1407H136.46L124.545 1395.1L112.63 1407H109.466V1406.83L69.1784 1339.82L62.8759 1333.53L56.3832 1339.82L16.0951 1407V1402.46L54.6233 1338.61L54.7898 1338.25L61.2825 1331.96L44.6345 1315.33L38.3321 1321.63L16.0951 1388.28V1381.11L36.2392 1320.58L36.5959 1320.22L50.2473 1306.4L33.7895 1289.96L20.3047 1303.43L16.0951 1332.48V1316.38L18.0215 1302.74L18.3783 1302.05L39.4023 1281.05L16.0951 1257.77V1254.61L22.9208 1261.26L39.3785 1244.83L16.0713 1221.55V1218.22C25.0137 1227.15 33.7658 1235.89 42.5178 1244.83L24.4667 1262.86L42.5178 1281.05L35.3354 1288.39L53.5531 1306.42L46.2042 1313.76L62.8521 1330.2L79.3099 1313.76L72.1274 1306.42L90.3451 1288.39L82.9962 1281.05L101.214 1263.02L82.9962 1244.83L109.443 1218.22L69.1546 1151.21L62.8521 1144.72L56.3594 1151.21L16.0713 1218.22V1213.85L54.5995 1149.81L54.766 1149.64L61.2587 1143.15L44.6107 1126.53L38.3083 1132.82L16.0713 1199.48V1192.3L36.2154 1131.94L36.5721 1131.42L50.2235 1117.78L33.7658 1101.16L20.2809 1114.63L16.0713 1143.68V1127.76L17.9978 1113.94L18.3545 1113.25L39.3785 1092.44L16.0713 1069.16V1065.83L22.897 1072.65L39.3547 1056.02L16.0476 1032.74V1029.58V1025.05L54.5757 961.193L54.7422 960.837L61.2349 954.352L44.5869 937.913L38.2845 944.208L16.0476 1010.86V1003.69L36.3581 943.163L36.5246 942.807L50.1759 928.981L33.7182 912.543L20.2333 926.012L16.0238 955.064V939.148L17.9502 925.323L18.3069 924.634L39.3309 903.635L16.0238 880.355V877.196L22.8495 883.847L39.3072 867.409L16 843.963V840.803C24.9423 849.545 33.6944 858.477 42.6368 867.409L24.4191 885.439L42.4703 903.635L35.2879 910.809L53.5055 929.005L46.1566 936.345L62.8046 952.784L79.4525 936.345L72.1037 929.005L90.3213 910.975L82.9724 903.635L101.19 885.439L82.9724 867.409L109.419 840.803L69.1308 773.625L62.8284 767.33L56.3357 773.625L16.214 840.827V836.456L54.7422 772.413L54.9087 772.247L61.4014 765.762L44.7534 749.133L38.451 755.429L16.214 822.085V814.911L36.3581 754.55L36.7148 754.027L50.3662 740.392L33.9085 723.763L20.4236 737.232L16.214 766.284V750.179L18.1405 736.543L18.4972 735.855L39.5212 714.855L16.214 691.576V688.416L22.8732 695.234L39.5212 678.605L16.214 655.326V652C25.1564 660.932 33.9085 669.674 42.6605 678.605L24.6094 696.802L42.6605 714.832L35.4781 722.172L53.6958 740.368L46.3469 747.542L62.9948 764.17L79.4525 747.542L72.2701 740.368L90.4878 722.172L83.1389 714.832L101.357 696.802L83.1389 678.605L109.585 652H112.748L112.582 652.356L124.854 672.833L136.936 652.546L136.579 652.024H139.908C148.661 660.956 157.603 669.697 166.355 678.629L148.137 696.825L166.355 714.855L159.006 722.196L177.224 740.392L170.041 747.566L186.499 764.194L203.147 747.566L195.798 740.392L214.016 722.196L206.833 714.855L224.884 696.825L206.667 678.629L233.304 652.024H236.467L236.11 652.38L248.382 672.857L260.654 652.57L260.297 652.047H263.46C272.402 660.979 281.155 669.721 290.097 678.653L271.879 696.849L289.93 714.879L282.748 722.219L300.966 740.416L293.617 747.589L310.265 764.218L326.722 747.589L319.54 740.416L337.758 722.219L330.409 714.879L348.626 696.849L330.409 678.653L356.855 652.047H360.185L359.828 652.404L372.1 672.881L384.182 652.594L383.825 652.071H387.155C395.907 661.003 404.849 669.745 413.601 678.677L395.383 696.873L413.601 714.903L406.419 722.243L424.47 740.439L417.287 747.613L433.745 764.242L450.393 747.613L443.211 740.439L461.262 722.243L454.079 714.903L472.131 696.873L453.913 678.677L480.55 652.071H483.713L483.356 652.428L495.628 672.904L507.9 652.618L507.543 652.095H510.706C519.649 661.027 528.401 669.769 537.343 678.7L519.125 696.897L537.343 714.927L529.994 722.267L548.212 740.463L540.863 747.637L557.511 764.265L574.159 747.637L566.81 740.463L585.028 722.267L577.679 714.927L595.896 696.897L577.679 678.7L604.125 652.095H607.455L607.098 652.451L619.37 672.928L631.642 652.641L631.119 652.119H634.448C643.2 661.051 652.143 669.792 660.895 678.724L642.677 696.92L660.895 714.95L653.712 722.291L671.764 740.487L664.581 747.661L681.229 764.289L697.687 747.661L690.504 740.487L708.555 722.291L701.373 714.95L719.424 696.92L701.207 678.724L727.843 652.119H731.006L730.84 652.475L742.922 672.952L755.194 652.665L754.837 652.143H758V655.468L756.954 654.233L744.515 674.876L758 688.511V691.837L744.158 677.845V826.907L746.774 829.52L757.976 750.274V766.38L748.701 831.634L751.507 834.437L758 815.006V822.18L753.457 836.171L756.43 839.141L758 836.528V840.898V844.058L756.763 842.823L744.325 863.632L757.976 877.267V880.427L744.135 866.435V1015.69L746.751 1018.3L757.952 939.22V955.135L748.677 1020.22L751.65 1023.19L757.952 1003.76V1010.94L753.41 1024.93L756.383 1027.9L757.952 1025.09V1029.63V1032.79L756.906 1031.55L744.468 1052.2L757.952 1065.83V1069.16L744.111 1055.17V1204.42L746.727 1206.87L757.929 1127.79V1143.7L748.653 1208.96L751.46 1211.76L757.952 1192.33V1199.5L753.41 1213.49L756.383 1216.65L757.952 1213.85V1218.22V1221.55L756.716 1220.31L744.277 1240.95L757.929 1254.59V1257.75L744.087 1243.76V1393.01L746.703 1395.62L757.905 1316.38V1332.48L748.63 1397.74L751.436 1400.54L757.929 1381.11V1388.28L753.386 1402.27L756.359 1405.24L757.929 1402.44V1406.98H754.766L742.85 1395.08L730.935 1406.98H727.772L727.558 1407ZM729.318 1405.24L732.291 1402.27L705.321 1321.63L699.019 1315.33L682.561 1331.96L689.054 1338.25L689.22 1338.61L729.342 1405.27L729.318 1405.24ZM734.051 1400.35L736.857 1397.55L723.372 1303.41L709.887 1289.94L693.43 1306.37L707.081 1320.2L707.438 1320.56L734.074 1400.35H734.051ZM738.95 1395.62L741.566 1393.01V1243.76L704.251 1281.03L725.275 1302.03L725.632 1302.72L738.95 1395.62ZM741.233 1240.95L728.795 1220.14L704.275 1244.83L720.923 1261.26L741.233 1240.98V1240.95ZM727.582 1218.22L687.294 1151.21L680.991 1144.72L674.499 1151.21L634.21 1218.22C642.963 1227.15 651.905 1235.89 660.657 1244.83L642.439 1262.86L660.657 1281.05L653.475 1288.39L671.526 1306.42L664.343 1313.76L680.991 1330.2L697.449 1313.76L690.267 1306.42L708.318 1288.39L701.135 1281.05L719.186 1263.02L700.969 1244.83L727.606 1218.22H727.582ZM680.991 1141.59L697.449 1124.96L690.267 1117.78L708.318 1099.59L701.135 1092.41L719.186 1074.22L700.969 1056.02L727.606 1029.42L687.317 962.404L681.015 955.919L674.522 962.404L634.234 1029.58C642.986 1038.32 651.929 1047.09 660.681 1056L642.463 1074.19L660.681 1092.39L653.498 1099.56L671.549 1117.76L664.367 1124.94L681.015 1141.56L680.991 1141.59ZM729.342 1027.87L732.315 1024.9L705.345 944.256L699.042 937.961L682.585 954.399L689.077 960.884L689.244 961.24L729.365 1027.9L729.342 1027.87ZM734.074 1022.98L737.047 1020.18L723.396 926.036L710.078 912.567L693.43 929.005L707.271 942.83L707.438 943.187L734.074 1022.98ZM738.974 1018.09L741.59 1015.64V866.387L704.275 903.659L725.299 924.658L725.655 925.347L738.974 1018.09ZM754.908 1029.99L742.636 1017.73L730.555 1029.8L742.636 1050.27L754.908 1029.99ZM728.818 1031.55L704.298 1056.05L720.946 1072.67L741.257 1052.2L728.818 1031.55ZM741.614 1055.17L704.298 1092.44L725.322 1113.25L725.679 1113.94L738.998 1206.84L741.614 1204.23V1055.17ZM736.881 1208.96L723.396 1114.65L709.911 1101.18L693.453 1117.81L707.105 1131.44L707.461 1131.97L734.098 1211.76L736.905 1208.96H736.881ZM732.338 1213.49L705.369 1132.85L699.066 1126.55L682.609 1143.18L689.101 1149.66L689.268 1149.83L729.389 1216.49L732.362 1213.52L732.338 1213.49ZM730.412 1218.58L742.684 1238.86L754.956 1218.58L742.684 1206.32L730.412 1218.58ZM741.281 863.584L728.842 842.775L704.322 867.433L720.97 883.871L741.281 863.584ZM727.629 840.851L687.341 773.672L681.039 767.377L674.546 773.672L634.258 840.851C643.01 849.593 651.952 858.525 660.704 867.456L642.653 885.486L660.704 903.683L653.522 910.856L671.74 929.053L664.391 936.393L681.039 952.831L697.497 936.393L690.314 929.053L708.365 911.023L701.183 903.683L719.234 885.486L701.183 867.456L727.629 840.851ZM728.866 654.162L704.346 678.653L720.804 695.281L741.304 674.805L728.866 654.162ZM741.661 677.774L704.346 714.855L725.37 735.855L725.727 736.543L739.045 829.449L741.661 826.836V677.774ZM736.928 831.563L723.444 737.256L709.959 723.787L693.501 740.416L707.152 754.051L707.509 754.573L734.146 834.366L736.952 831.563H736.928ZM732.386 836.1L705.416 755.452L699.114 749.157L682.656 765.786L689.149 772.271L689.315 772.437L729.437 839.093L732.41 836.124L732.386 836.1ZM730.626 841.183L742.708 861.47L754.98 841.183L742.708 828.926L730.626 841.183ZM605.742 1405.27L608.715 1402.3L581.912 1321.65L575.61 1315.35L558.962 1331.98L565.454 1338.28L565.621 1338.63L605.742 1405.29V1405.27ZM610.642 1400.37L613.448 1397.57L599.963 1303.43L586.478 1289.96L569.83 1306.4L583.672 1320.22L583.838 1320.58L610.642 1400.37ZM615.374 1395.65L617.991 1393.03V1243.78L580.866 1281.05L601.699 1302.05L602.056 1302.74L615.374 1395.65ZM620.274 1393.03L622.89 1395.65L636.208 1302.74L636.565 1302.05L657.589 1281.05L620.274 1243.78V1393.03ZM625.007 1397.76L627.813 1400.56L654.45 1320.6L654.806 1320.25L668.458 1306.42L652 1289.98L638.515 1303.45L625.03 1397.76H625.007ZM629.549 1402.3L632.522 1405.27L672.643 1338.61L672.81 1338.25L679.303 1331.96L662.845 1315.33L656.542 1321.63L629.573 1402.27L629.549 1402.3ZM617.824 1240.98L605.219 1220.17L580.699 1244.85L597.347 1261.29L617.848 1241L617.824 1240.98ZM604.173 1218.24L563.718 1151.23L557.416 1144.75L551.113 1151.23L510.659 1218.24C519.601 1227.18 528.353 1235.92 537.295 1244.85L519.078 1262.88L537.295 1281.08L529.947 1288.42L548.164 1306.45L540.815 1313.79L557.463 1330.22L574.111 1313.79L566.762 1306.45L584.98 1288.42L577.631 1281.08L595.849 1263.05L577.631 1244.85L604.268 1218.24H604.173ZM557.392 1141.61L574.04 1124.98L566.691 1117.81L584.909 1099.61L577.56 1092.44L595.777 1074.24L577.56 1056.05L604.197 1029.44L563.908 962.428L557.416 955.943L551.113 962.428L510.659 1029.61C519.601 1038.35 528.353 1047.11 537.295 1056.02L519.078 1074.22L537.295 1092.41L529.947 1099.59L548.164 1117.78L540.815 1124.96L557.463 1141.59L557.392 1141.61ZM605.742 1027.9L608.715 1024.93L581.912 944.28L575.61 937.984L558.962 954.423L565.454 960.908L565.621 961.264L605.742 1027.92V1027.9ZM610.642 1023L613.448 1020.2L599.963 926.06L586.478 912.591L570.021 929.029L583.672 942.854L584.029 943.211L610.665 1023H610.642ZM615.374 1018.11L617.991 1015.66V866.411L580.866 903.683L601.89 924.682L602.056 925.371L615.374 1018.11ZM620.274 1015.66L622.89 1018.28L636.208 925.371L636.565 924.682L657.589 903.683L620.274 866.411V1015.66ZM625.007 1020.2L627.813 1023.17L654.45 943.211L654.806 942.854L668.458 929.029L652 912.591L638.515 926.06L625.03 1020.2H625.007ZM629.549 1024.93L632.522 1027.9L672.81 961.24L672.976 960.884L679.279 954.399L662.821 937.961L656.519 944.256L629.549 1024.9V1024.93ZM633.045 1220.36L620.607 1241L640.917 1261.29L657.565 1244.85L633.045 1220.36ZM565.597 1149.85L605.719 1216.51L608.691 1213.54L581.888 1132.89L575.586 1126.6L558.938 1143.23L565.431 1149.71L565.597 1149.88V1149.85ZM606.932 1218.62L619.203 1238.91L631.285 1218.62L619.203 1206.37L606.932 1218.62ZM632.498 1216.7L672.62 1149.85L672.786 1149.69L679.279 1143.2L662.821 1126.57L656.519 1132.87L629.549 1213.52L632.522 1216.68L632.498 1216.7ZM627.765 1211.81L654.402 1132.01L654.759 1131.49L668.41 1117.86L651.952 1101.23L638.468 1114.7L624.983 1209L627.789 1211.81H627.765ZM622.866 1207.08L636.184 1114.01L636.541 1113.32L657.565 1092.51L620.25 1055.24V1204.49L622.866 1207.1V1207.08ZM617.967 1055.21L580.842 1092.49L601.676 1113.3L602.032 1113.98L615.351 1206.89L617.967 1204.28V1055.21ZM613.424 1209L599.939 1114.7L586.455 1101.23L569.807 1117.86L583.648 1131.49L583.815 1132.01L610.618 1211.81L613.424 1209ZM597.299 1072.7L617.8 1052.22L605.362 1031.58L580.652 1056.07L597.299 1072.7ZM620.607 1052.22L640.917 1072.7L657.565 1056.07L633.045 1031.58L620.607 1052.22ZM631.475 1030.01L619.203 1017.75L606.932 1029.82L619.203 1050.3L631.475 1030.01ZM617.824 863.632L605.386 842.823L580.675 867.48L597.323 883.918L617.824 863.632ZM604.173 840.898L563.718 773.72L557.416 767.425L551.113 773.72L510.659 840.898C519.601 849.64 528.353 858.572 537.295 867.504L519.078 885.534L537.295 903.73L529.947 910.904L548.164 929.1L540.982 936.44L557.44 952.879L574.088 936.44L566.739 929.1L584.956 911.07L577.607 903.73L595.825 885.534L577.607 867.504L604.244 840.898H604.173ZM605.409 654.209L580.699 678.7L597.347 695.329L617.848 674.852L605.409 654.209ZM620.654 674.852L640.965 695.329L657.613 678.7L633.093 654.209L620.654 674.852ZM633.093 842.823L620.654 863.632L640.965 883.918L657.613 867.48L633.093 842.823ZM565.645 772.485L605.766 839.141L608.739 836.171L581.936 755.524L575.633 749.229L558.985 765.857L565.478 772.342L565.645 772.508V772.485ZM606.979 841.255L619.251 861.541L631.523 841.255L619.251 828.997L606.979 841.255ZM632.546 839.164L672.667 772.508L672.834 772.342L679.326 765.857L662.869 749.229L656.566 755.524L629.597 836.171L632.569 839.141L632.546 839.164ZM627.813 834.437L654.45 754.645L654.806 754.122L668.458 740.487L652 723.858L638.515 737.327L625.03 831.634L627.837 834.437H627.813ZM622.914 829.544L636.232 736.638L636.589 735.95L657.613 714.95L620.297 677.869V826.931L622.914 829.544ZM618.014 677.845L580.889 714.927L601.723 735.926L602.08 736.615L615.398 829.52L618.014 826.907V677.845ZM613.472 831.634L599.987 737.327L586.502 723.858L569.854 740.487L583.696 754.122L583.862 754.645L610.665 834.437L613.472 831.634ZM482.096 1405.34L485.259 1402.37L458.289 1321.72L451.987 1315.43L435.529 1332.05L442.022 1338.35L442.188 1338.7L482.119 1405.36L482.096 1405.34ZM486.995 1400.44L489.801 1397.64L476.316 1303.5L462.831 1290.03L446.374 1306.47L460.025 1320.29L460.382 1320.65L487.019 1400.44H486.995ZM491.894 1395.72L494.51 1393.1V1243.85L457.195 1281.12L478.219 1302.12L478.576 1302.81L491.894 1395.72ZM496.793 1393.1L499.409 1395.72L512.728 1302.81L512.894 1302.12L533.918 1281.12L496.793 1243.85V1393.1ZM501.336 1397.83L504.142 1400.63L530.945 1320.67L531.112 1320.32L544.954 1306.49L528.306 1290.05L514.821 1303.52L501.336 1397.83ZM506.069 1402.37L509.042 1405.34L549.163 1338.68L549.33 1338.32L555.822 1332.03L539.174 1315.4L532.872 1321.7L506.069 1402.34V1402.37ZM494.153 1241.05L481.715 1220.24L457.195 1244.92L473.653 1261.36L494.153 1241.07V1241.05ZM480.502 1218.32L440.214 1151.3L433.721 1144.82L427.419 1151.3L387.131 1218.32C395.883 1227.25 404.825 1235.99 413.577 1244.92L395.36 1262.95L413.577 1281.15L406.395 1288.49L424.446 1306.52L417.264 1313.86L433.721 1330.3L450.369 1313.86L443.187 1306.52L461.238 1288.49L454.056 1281.15L472.107 1263.12L453.889 1244.92L480.526 1218.32H480.502ZM433.721 1141.68L450.369 1125.05L443.187 1117.88L461.238 1099.68L454.056 1092.51L472.107 1074.31L453.889 1056.12L480.526 1029.51L440.238 962.499L433.935 956.014L427.443 962.499L387.155 1029.68C395.907 1038.42 404.849 1047.19 413.601 1056.09L395.383 1074.29L413.601 1092.49L406.419 1099.66L424.47 1117.86L417.287 1125.03L433.745 1141.66L433.721 1141.68ZM482.238 1027.97L485.211 1025L458.241 944.351L451.939 938.056L435.481 954.494L441.974 960.979L442.14 961.336L482.262 1027.99L482.238 1027.97ZM486.971 1023.07L489.777 1020.27L476.293 926.131L462.808 912.662L446.35 929.1L460.001 942.926L460.358 943.282L486.995 1023.07H486.971ZM491.87 1018.18L494.486 1015.73V866.482L457.171 903.754L478.195 924.753L478.552 925.442L491.87 1018.18ZM496.77 1015.73L499.386 1018.35L512.704 925.442L513.061 924.753L533.895 903.754L496.77 866.482V1015.73ZM501.312 1020.27L504.118 1023.24L530.922 943.282L531.088 942.926L544.93 929.1L528.282 912.662L514.797 926.131L501.312 1020.27ZM506.045 1025L509.018 1027.97L549.139 961.312L549.306 960.955L555.799 954.47L539.151 938.032L532.848 944.327L506.045 1024.97V1025ZM509.374 1220.43L496.936 1241.07L517.437 1261.36L533.895 1244.92L509.374 1220.43ZM442.117 1149.93L482.048 1216.58L485.211 1213.61L458.241 1132.96L451.939 1126.67L435.481 1143.3L441.974 1149.78L442.14 1149.95L442.117 1149.93ZM483.285 1218.7L495.557 1238.98L507.829 1218.7L495.557 1206.44L483.285 1218.7ZM509.042 1216.77L549.163 1149.93L549.33 1149.76L555.822 1143.27L539.174 1126.65L532.872 1132.94L506.069 1213.59L509.042 1216.75V1216.77ZM504.142 1211.88L530.945 1132.09L531.112 1131.56L544.954 1117.93L528.306 1101.3L514.821 1114.77L501.336 1209.07L504.142 1211.88ZM499.409 1207.15L512.728 1114.08L512.894 1113.39L533.918 1092.58L496.793 1055.31V1204.56L499.409 1207.17V1207.15ZM494.51 1055.29L457.195 1092.56L478.219 1113.37L478.576 1114.06L491.894 1206.96L494.51 1204.35V1055.29ZM489.777 1209.07L476.293 1114.77L462.808 1101.3L446.35 1117.93L460.001 1131.56L460.358 1132.09L486.995 1211.88L489.801 1209.07H489.777ZM473.653 1072.77L494.153 1052.29L481.715 1031.65L457.195 1056.14L473.653 1072.77ZM496.96 1052.29L517.461 1072.77L533.918 1056.14L509.398 1031.65L496.96 1052.29ZM507.829 1030.08L495.557 1017.82L483.285 1029.89L495.557 1050.37L507.829 1030.08ZM494.177 863.703L481.739 842.894L457.219 867.551L473.867 883.99L494.177 863.703ZM480.526 840.97L440.238 773.791L433.745 767.496L427.443 773.791L387.155 840.97C395.907 849.711 404.849 858.643 413.601 867.575L395.383 885.605L413.601 903.801L406.419 910.975L424.47 929.171L417.287 936.512L433.935 952.95L450.393 936.512L443.211 929.171L461.262 911.142L454.079 903.801L472.131 885.605L453.913 867.575L480.55 840.97H480.526ZM481.763 654.28L457.243 678.772L473.7 695.4L494.201 674.923L481.763 654.28ZM497.007 674.923L517.508 695.4L533.966 678.772L509.446 654.28L497.007 674.923ZM509.446 842.894L497.007 863.703L517.508 883.99L533.966 867.551L509.446 842.894ZM442.188 772.556L482.31 839.212L485.282 836.243L458.313 755.595L452.01 749.3L435.553 765.928L442.045 772.413L442.212 772.58L442.188 772.556ZM483.356 841.326L495.628 861.613L507.9 841.326L495.628 829.069L483.356 841.326ZM509.113 839.236L549.234 772.58L549.401 772.413L555.894 765.928L539.246 749.3L532.943 755.595L506.14 836.243L509.113 839.212V839.236ZM504.214 834.508L531.017 754.716L531.183 754.193L545.025 740.558L528.377 723.93L514.892 737.399L501.407 831.705L504.214 834.508ZM499.481 829.615L512.799 736.71L512.966 736.021L533.99 715.022L496.865 677.94V827.002L499.481 829.615ZM494.582 677.917L457.266 714.998L478.29 735.997L478.647 736.686L491.965 829.591L494.582 826.978V677.917ZM489.849 831.705L476.364 737.399L462.879 723.93L446.421 740.558L460.073 754.193L460.429 754.716L487.066 834.508L489.873 831.705H489.849ZM358.639 1405.41L361.612 1402.44L334.809 1321.79L328.506 1315.5L311.858 1332.12L318.351 1338.42L318.517 1338.78L358.639 1405.43V1405.41ZM363.372 1400.51L366.345 1397.71L352.86 1303.57L339.375 1290.1L322.727 1306.54L336.569 1320.37L336.735 1320.72L363.372 1400.51ZM368.271 1395.79L370.887 1393.17V1243.92L333.572 1281.19L354.596 1302.19L354.953 1302.88L368.271 1395.79ZM373.17 1393.17L375.786 1395.79L389.105 1302.88L389.462 1302.19L410.486 1281.19L373.17 1243.92V1393.17ZM377.713 1397.9L380.686 1400.71L407.322 1320.75L407.679 1320.39L421.33 1306.56L404.682 1290.13L391.364 1303.6L377.713 1397.9ZM382.446 1402.44L385.418 1405.41L425.54 1338.75L425.707 1338.4L432.199 1332.1L415.742 1315.47L409.439 1321.77L382.469 1402.42L382.446 1402.44ZM370.53 1241.12L358.092 1220.31L333.572 1244.99L350.22 1261.43L370.53 1241.14V1241.12ZM357.046 1218.39L316.591 1151.37L310.289 1144.89L303.796 1151.37L263.508 1218.39C272.45 1227.32 281.202 1236.06 290.144 1244.99L271.927 1263.02L289.978 1281.22L282.796 1288.56L301.013 1306.59L293.664 1313.93L310.312 1330.37L326.96 1313.93L319.611 1306.59L337.829 1288.56L330.48 1281.22L348.698 1263.19L330.48 1244.99L357.117 1218.39H357.046ZM310.265 1141.75L326.913 1125.13L319.564 1117.95L337.781 1099.75L330.433 1092.58L348.65 1074.38L330.433 1056.19L357.069 1029.58L316.615 962.571L310.312 956.086L304.01 962.571L263.555 1029.75C272.498 1038.49 281.25 1047.26 290.192 1056.16L271.974 1074.36L290.026 1092.56L282.843 1099.73L301.061 1117.93L293.712 1125.1L310.36 1141.73L310.265 1141.75ZM358.615 1028.04L361.588 1025.07L334.785 944.422L328.482 938.127L311.834 954.565L318.327 961.05L318.494 961.407L358.615 1028.06V1028.04ZM363.514 1023.15L366.321 1020.34L352.836 926.202L339.351 912.733L322.703 929.171L336.545 942.997L336.711 943.353L363.514 1023.15ZM368.247 1018.25L370.863 1015.81V866.554L333.738 903.825L354.572 924.824L354.929 925.513L368.247 1018.25ZM373.147 1015.81L375.763 1018.42L389.081 925.513L389.438 924.824L410.462 903.825L373.147 866.554V1015.81ZM377.879 1020.34L380.686 1023.31L407.322 943.353L407.679 942.997L421.33 929.171L404.873 912.733L391.388 926.202L377.903 1020.34H377.879ZM382.422 1025.07L385.395 1028.04L425.516 961.383L425.683 961.027L432.175 954.542L415.718 938.103L409.415 944.398L382.446 1025.05L382.422 1025.07ZM385.918 1220.5L373.479 1241.14L393.79 1261.43L410.438 1244.99L385.918 1220.5ZM318.47 1150L358.591 1216.65L361.564 1213.68L334.761 1133.04L328.459 1126.74L311.811 1143.37L318.303 1149.85L318.47 1150.02V1150ZM359.804 1218.77L372.076 1239.05L384.158 1218.77L371.886 1206.51L359.804 1218.77ZM385.371 1216.84L425.492 1150L425.659 1149.83L432.152 1143.35L415.694 1126.72L409.392 1133.01L382.422 1213.66L385.395 1216.82L385.371 1216.84ZM380.638 1211.95L407.275 1132.16L407.632 1131.63L421.283 1118L404.635 1101.37L391.317 1114.84L377.665 1209.15L380.638 1211.95ZM375.739 1207.22L389.057 1114.15L389.414 1113.46L410.438 1092.65L373.123 1055.38V1204.63L375.739 1207.25V1207.22ZM370.84 1055.36L333.524 1092.63L354.548 1113.44L354.905 1114.13L368.223 1207.03L370.84 1204.42V1055.36ZM366.297 1209.15L352.812 1114.84L339.327 1101.37L322.679 1118L336.521 1131.63L336.687 1132.16L363.491 1211.95L366.297 1209.15ZM350.172 1072.84L370.673 1052.36L358.068 1031.72L333.548 1056.21L350.196 1072.84H350.172ZM373.479 1052.36L393.79 1072.84L410.438 1056.21L385.918 1031.72L373.479 1052.36ZM384.158 1030.15L371.886 1017.9L359.804 1029.96L372.076 1050.44L384.158 1030.15ZM370.507 863.774L358.068 842.965L333.548 867.623L350.196 884.061L370.507 863.774ZM357.022 841.041L316.567 773.862L310.265 767.567L303.772 773.862L263.484 841.041C272.426 849.783 281.178 858.715 290.121 867.646L271.903 885.676L290.121 903.873L282.772 911.046L300.989 929.243L293.641 936.583L310.289 953.021L326.936 936.583L319.588 929.243L337.805 911.213L330.456 903.873L348.674 885.676L330.456 867.646L357.093 841.041H357.022ZM358.068 654.352L333.548 678.843L350.196 695.471L370.697 674.995L358.092 654.352H358.068ZM373.479 674.995L393.79 695.471L410.438 678.843L385.918 654.352L373.479 674.995ZM385.918 842.965L373.479 863.774L393.79 884.061L410.438 867.623L385.918 842.965ZM318.47 772.627L358.591 839.283L361.564 836.314L334.761 755.666L328.459 749.371L311.811 765.999L318.303 772.485L318.47 772.651V772.627ZM359.804 841.397L372.076 861.684L384.158 841.397L372.076 829.14L359.804 841.397ZM385.371 839.307L425.492 772.651L425.659 772.485L432.152 765.999L415.694 749.371L409.392 755.666L382.422 836.314L385.395 839.283L385.371 839.307ZM380.638 834.58L407.275 754.787L407.632 754.265L421.283 740.629L404.635 724.001L391.317 737.47L377.665 831.777L380.638 834.58ZM375.739 829.686L389.057 736.781L389.414 736.092L410.438 715.093L373.123 678.012V827.073L375.739 829.686ZM370.84 677.988L333.524 715.069L354.548 736.068L354.905 736.757L368.223 829.662L370.84 827.049V677.988ZM366.297 831.777L352.812 737.47L339.327 724.001L322.679 740.629L336.521 754.265L336.687 754.787L363.491 834.58L366.297 831.777ZM234.921 1405.48L238.084 1402.51L211.114 1321.86L204.812 1315.57L188.354 1332.2L194.656 1338.49L194.823 1338.85L234.945 1405.5L234.921 1405.48ZM239.82 1400.59L242.626 1397.78L229.142 1303.64L215.657 1290.17L199.199 1306.61L212.85 1320.44L213.207 1320.79L239.844 1400.59H239.82ZM244.719 1395.86L247.335 1393.25V1243.99L210.02 1281.27L231.044 1302.26L231.401 1302.95L244.719 1395.86ZM249.619 1393.25L252.068 1395.86L265.387 1302.95L265.743 1302.26L286.767 1281.27L249.452 1243.99L249.619 1393.25ZM254.161 1397.97L256.967 1400.78L283.771 1320.82L283.937 1320.46L297.589 1306.64L281.131 1290.2L267.646 1303.67L254.161 1397.97ZM258.704 1402.51L261.867 1405.48L301.988 1338.82L302.155 1338.47L308.648 1332.17L292 1315.54L285.697 1321.84L258.727 1402.49L258.704 1402.51ZM246.979 1241.19L234.54 1220.38L210.02 1245.06L226.478 1261.5L246.979 1241.22V1241.19ZM233.327 1218.46L193.039 1151.45L186.547 1144.96L180.244 1151.45L139.956 1218.46C148.708 1227.39 157.65 1236.13 166.403 1245.06L148.185 1263.09L166.403 1281.29L159.054 1288.63L177.271 1306.66L170.089 1314L186.547 1330.44L203.195 1314L195.846 1306.66L214.063 1288.63L206.881 1281.29L224.932 1263.26L206.714 1245.06L233.351 1218.46H233.327ZM186.547 1141.82L203.195 1125.2L195.846 1118.02L214.063 1099.83L206.881 1092.65L224.932 1074.46L206.714 1056.26L233.351 1029.65L193.063 962.642L186.57 956.157L180.268 962.642L139.98 1029.82C148.732 1038.56 157.674 1047.33 166.426 1056.24L148.209 1074.43L166.426 1092.63L159.077 1099.8L177.295 1118L170.113 1125.17L186.57 1141.8L186.547 1141.82ZM234.897 1028.11L238.06 1025.14L211.09 944.493L204.788 938.198L188.33 954.637L194.823 961.122L194.989 961.478L234.921 1028.13L234.897 1028.11ZM239.796 1023.22L242.603 1020.41L229.118 926.273L215.633 912.804L199.175 929.243L212.827 943.068L213.183 943.424L239.82 1023.22H239.796ZM244.696 1018.32L247.312 1015.88V866.625L209.996 903.896L231.02 924.896L231.377 925.585L244.696 1018.32ZM249.595 1015.88L252.211 1018.49L265.529 925.585L265.696 924.896L286.72 903.896L249.595 866.625V1015.88ZM254.137 1020.41L256.944 1023.38L283.747 943.424L283.913 943.068L297.755 929.243L281.107 912.804L267.622 926.273L254.137 1020.41ZM258.87 1025.14L261.843 1028.11L301.965 961.454L302.131 961.098L308.624 954.613L291.976 938.175L285.673 944.47L258.87 1025.12V1025.14ZM262.2 1220.57L249.761 1241.22L270.262 1261.5L286.72 1245.06L262.2 1220.57ZM194.752 1150.07L234.873 1216.72L238.036 1213.75L211.067 1133.11L204.764 1126.81L188.306 1143.44L194.609 1149.93L194.775 1150.09L194.752 1150.07ZM236.086 1218.84L248.358 1239.12L260.63 1218.84L248.358 1206.58L236.086 1218.84ZM261.843 1216.91L301.965 1150.07L302.131 1149.9L308.624 1143.42L291.976 1126.79L285.673 1133.08L258.704 1213.73L261.867 1216.89L261.843 1216.91ZM256.944 1212.02L283.747 1132.23L283.913 1131.71L297.565 1118.07L281.107 1101.44L267.622 1114.91L254.137 1209.22L256.944 1212.02ZM252.044 1207.29L265.363 1114.22L265.72 1113.53L286.744 1092.72L249.428 1055.45L249.595 1204.7L252.044 1207.32V1207.29ZM247.312 1055.43L209.996 1092.7L231.02 1113.51L231.377 1114.2L244.696 1207.1L247.312 1204.49V1055.43ZM242.579 1209.22L229.094 1114.91L215.609 1101.44L199.151 1118.07L212.803 1131.71L213.16 1132.23L239.796 1212.02L242.603 1209.22H242.579ZM226.454 1072.91L246.955 1052.44L234.516 1031.79L209.996 1056.28L226.454 1072.91ZM249.761 1052.44L270.262 1072.91L286.72 1056.28L262.2 1031.79L249.761 1052.44ZM260.63 1030.22L248.358 1017.97L236.086 1030.03L248.358 1050.51L260.63 1030.22ZM246.979 863.846L234.54 843.036L210.02 867.694L226.478 884.132L246.979 863.846ZM233.327 841.112L193.039 773.934L186.547 767.639L180.244 773.934L139.956 841.112C148.708 849.854 157.65 858.786 166.403 867.718L148.185 885.748L166.403 903.944L159.22 911.118L177.271 929.314L170.089 936.654L186.547 953.093L203.195 936.654L196.012 929.314L214.063 911.284L206.881 903.944L224.932 885.748L206.714 867.718L233.351 841.112H233.327ZM234.564 654.423L210.044 678.914L226.502 695.543L247.002 675.066L234.564 654.423ZM249.809 675.066L270.31 695.543L286.767 678.914L262.247 654.423L249.809 675.066ZM262.247 843.036L249.809 863.846L270.31 884.132L286.767 867.694L262.247 843.036ZM194.799 772.698L234.921 839.354L238.084 836.385L211.114 755.737L204.812 749.442L188.354 766.071L194.656 772.556L194.823 772.722L194.799 772.698ZM236.134 841.469L248.406 861.755L260.678 841.469L248.406 829.211L236.134 841.469ZM261.891 839.378L302.012 772.722L302.179 772.556L308.671 766.071L292.023 749.442L285.721 755.737L258.751 836.385L261.914 839.354L261.891 839.378ZM256.991 834.651L283.794 754.858L283.961 754.336L297.612 740.701L281.155 724.072L267.67 737.541L254.185 831.848L256.991 834.651ZM252.092 829.757L265.41 736.852L265.767 736.163L286.791 715.164L249.476 678.083V827.144L252.092 829.757ZM247.359 678.059L210.044 715.14L231.068 736.14L231.425 736.829L244.743 829.734L247.359 827.121V678.059ZM242.626 831.848L229.142 737.541L215.657 724.072L199.199 740.701L212.85 754.336L213.207 754.858L239.844 834.651L242.65 831.848H242.626ZM111.417 1405.55L114.389 1402.58L87.4198 1321.93L81.2838 1315.64L64.6359 1332.27L71.1286 1338.56L71.295 1338.92L111.417 1405.57V1405.55ZM116.149 1400.66L119.122 1397.85L105.637 1303.71L92.1526 1290.25L75.5046 1306.68L89.3462 1320.51L89.5127 1320.86L116.149 1400.66ZM121.049 1395.93L123.665 1393.32V1244.07L86.3496 1281.34L107.374 1302.34L107.73 1303.03L121.049 1395.93ZM125.948 1393.32L128.564 1395.93L141.882 1303.03L142.239 1302.34L163.263 1281.34L125.948 1244.07V1393.32ZM130.49 1398.04L133.463 1400.85L160.1 1320.89L160.457 1320.53L174.108 1306.71L157.46 1290.27L143.975 1303.74L130.49 1398.04ZM135.223 1402.58L138.196 1405.55L178.318 1338.89L178.484 1338.54L184.977 1332.24L168.519 1315.62L162.217 1321.91L135.247 1402.56L135.223 1402.58ZM119.098 1020.46L105.614 926.321L92.1288 912.852L75.4808 929.29L89.3224 943.116L89.4889 943.472L116.126 1023.26L119.098 1020.46ZM114.366 1025.19L87.5625 944.541L81.26 938.246L64.6121 954.684L71.1048 961.169L71.2713 961.526L111.393 1028.18L114.366 1025.21V1025.19ZM112.606 1030.08L124.878 1050.56L136.959 1030.27L124.687 1018.01L112.606 1030.08ZM138.172 1028.16L178.294 961.502L178.46 961.145L184.953 954.66L168.495 938.222L162.193 944.517L135.223 1025.16L138.196 1028.13L138.172 1028.16ZM133.44 1023.43L160.076 943.472L160.433 943.116L174.084 929.29L157.436 912.852L144.118 926.321L130.467 1020.46L133.44 1023.43ZM128.54 1018.54L141.859 925.632L142.215 924.943L163.239 903.944L125.924 866.672V1015.92L128.54 1018.54ZM123.284 1241.26L110.846 1220.45L86.3258 1245.13L102.974 1261.57L123.284 1241.29V1241.26ZM63.0186 1141.9L79.4763 1125.27L72.2939 1118.09L90.5116 1099.9L83.1627 1092.72L101.38 1074.53L83.1627 1056.33L109.609 1029.73L69.3211 962.713L63.0186 956.228L56.5259 962.713L16.214 1029.61C25.1564 1038.35 33.9085 1047.11 42.6605 1056.02L24.6094 1074.22L42.6605 1092.41L35.4781 1099.59L53.6958 1117.78L46.3469 1124.96L62.9948 1141.59L63.0186 1141.9ZM138.696 1220.62L126.257 1241.26L146.568 1261.55L163.216 1245.11L138.696 1220.62ZM71.2475 1150.12L111.369 1216.77L114.342 1213.8L87.3722 1133.15L81.2363 1126.86L64.5883 1143.49L71.081 1149.97L71.2475 1150.14V1150.12ZM112.582 1218.89L124.854 1239.17L136.936 1218.89L124.664 1206.63L112.582 1218.89ZM138.149 1216.96L178.27 1150.12L178.437 1149.95L184.929 1143.46L168.472 1126.84L162.169 1133.13L135.199 1213.78L138.172 1216.94L138.149 1216.96ZM133.416 1212.07L160.053 1132.28L160.409 1131.75L174.061 1118.12L157.413 1101.49L143.928 1114.96L130.443 1209.26L133.416 1212.07ZM128.516 1207.34L141.835 1114.27L142.192 1113.58L163.216 1092.77L125.9 1055.5V1204.75L128.516 1207.36V1207.34ZM123.617 1055.48L86.302 1092.75L107.326 1113.56L107.683 1114.25L121.001 1207.15L123.617 1204.54V1055.48ZM119.075 1209.26L105.59 1114.96L92.105 1101.49L75.457 1118.12L89.2986 1131.75L89.4651 1132.28L116.102 1212.07L119.075 1209.26ZM102.95 1072.96L123.26 1052.48L110.822 1031.84L86.302 1056.33L102.95 1072.96ZM126.257 1052.48L146.568 1072.96L163.216 1056.33L138.696 1031.84L126.257 1052.48ZM123.284 863.869L110.846 843.06L86.3258 867.718L102.974 884.156L123.284 863.869ZM110.846 654.447L86.3258 678.938L102.974 695.566L123.284 675.09L110.846 654.447ZM126.257 675.09L146.568 695.566L163.216 678.938L138.696 654.447L126.257 675.09ZM138.696 843.06L126.257 863.869L146.568 884.156L163.216 867.718L138.696 843.06ZM71.2475 772.722L111.369 839.378L114.342 836.409L87.3722 755.761L81.2363 749.466L64.5883 766.094L71.081 772.58L71.2475 772.746V772.722ZM112.582 841.492L124.854 861.779L136.936 841.492L124.664 829.235L112.582 841.492ZM138.149 839.402L178.27 772.746L178.437 772.58L184.929 766.094L168.472 749.466L162.169 755.761L135.199 836.409L138.172 839.378L138.149 839.402ZM133.416 834.675L160.053 754.882L160.409 754.36L174.061 740.724L157.413 724.096L143.928 737.565L130.443 831.872L133.416 834.675ZM128.516 829.781L141.835 736.876L142.192 736.187L163.216 715.188L125.9 678.107V827.168L128.516 829.781ZM123.617 678.083L86.302 715.164L107.326 736.163L107.683 736.852L121.001 829.757L123.617 827.144V678.083ZM119.075 831.872L105.59 737.565L92.105 724.096L75.457 740.724L89.2986 754.36L89.4651 754.882L116.102 834.675L119.075 831.872Z" fill="#D4DEED"/>
</g>
<defs>
<clipPath id="clip0_9213_64994">
<rect width="758" height="1407" fill="white"/>
</clipPath>
</defs>
</svg>
