<svg width="19" height="22" viewBox="0 0 19 22" fill="none" xmlns="http://www.w3.org/2000/svg">
<path d="M18.8647 0.536405L18.7873 0H0.184504L0.107085 0.536405C-0.224712 2.84793 0.212154 4.60092 1.45086 5.8894C2.51261 6.99539 3.9504 7.56498 5.33842 8.11244C7.51722 8.97512 8.85547 9.59447 8.85547 11.3419V20.2009H4.79096H4.73566L4.74119 21.4562H14.2306L14.2361 20.2009H10.1163V11.3475C10.1163 9.59447 11.4546 8.98064 13.6334 8.11797C15.0214 7.56498 16.4592 6.99539 17.5209 5.89493C18.7596 4.60092 19.1965 2.85346 18.8647 0.536405ZM16.6085 5.0212C15.7347 5.92811 14.4297 6.44793 13.1633 6.94562C12.096 7.37143 11.084 7.76958 10.2877 8.39447C9.96146 8.64885 9.69602 8.93088 9.48036 9.22949C9.26469 8.92535 8.99925 8.64885 8.67298 8.39447C7.87667 7.76958 6.86469 7.3659 5.79741 6.94562C4.53105 6.4424 3.22598 5.92811 2.35225 5.0212C1.47851 4.10876 1.13013 2.90876 1.27944 1.2553H17.6702C17.8306 2.90876 17.4877 4.11429 16.6085 5.0212Z" fill="white"/>
</svg>
