<svg width="24" height="19" viewBox="0 0 24 19" fill="none" xmlns="http://www.w3.org/2000/svg">
<path d="M23.4083 13.2544H22.9903L22.9832 13.1437C22.8161 10.4753 21.6795 7.96118 19.7822 6.06391C18.3399 4.62154 16.5392 3.61136 14.5761 3.14272L14.4852 3.12095V2.48521C14.4852 1.11479 13.3704 0 12 0C10.6296 0 9.51479 1.11479 9.51479 2.48521V3.12095L9.42391 3.14272C7.46036 3.61136 5.66012 4.62154 4.21775 6.06391C2.32047 7.96118 1.18391 10.4753 1.0168 13.1437L1.0097 13.2544H0.591716C0.265562 13.2544 0 13.52 0 13.8462C0 16.2604 1.9645 18.2249 4.3787 18.2249H19.5266C20.6982 18.2249 21.8121 17.7718 22.6632 16.9496C23.5252 16.116 24 15.014 24 13.8462C24 13.52 23.7344 13.2544 23.4083 13.2544ZM10.6982 2.48521C10.6982 1.76757 11.2824 1.18343 12 1.18343C12.7176 1.18343 13.3018 1.76757 13.3018 2.48521V2.91598L13.1711 2.90225C12.7806 2.86107 12.3867 2.84024 12 2.84024C11.6133 2.84024 11.2194 2.86107 10.8289 2.90225L10.6982 2.91598V2.48521ZM2.20402 13.1276C2.38343 10.6613 3.4826 8.36781 5.29988 6.66982C7.12615 4.96331 9.5058 4.02367 12 4.02367C14.4942 4.02367 16.8738 4.96331 18.7001 6.66982C20.5174 8.36781 21.617 10.6613 21.796 13.1276L21.8054 13.2544H2.19456L2.20355 13.1276H2.20402ZM22.7238 14.5856C22.3617 16.0085 21.0173 17.0414 19.5266 17.0414H4.3787C2.89089 17.0414 1.61231 16.0308 1.26911 14.5837L1.23456 14.4379H22.7612L22.7238 14.5856Z" fill="white"/>
</svg>
